<svg id="_x33_0" enable-background="new 0 0 64 64" height="512" viewBox="0 0 64 64" width="512" xmlns="http://www.w3.org/2000/svg"><g><g><g><path d="m36 62h-10v-6l6.78-6.78c.78-.78 1.22-1.84 1.22-2.95v8.27c-1.2.69-2 1.98-2 3.46 0 1.1.45 2.1 1.17 2.83.73.72 1.73 1.17 2.83 1.17z" fill="#ff826e"/></g><g><path d="m26 44v-1.26c0-1.8.47-3.56 1.36-5.12.83-1.45 1.98-2.66 3.34-3.54 1.3-.84 2.78-1.39 4.36-1.58l.44 3.77c.12 1.07.64 2 1.39 2.66.75.67 1.73 1.07 2.8 1.07 1.91 0 3.59-1.29 4.08-3.14l.23-.86.23.86c.49 1.85 2.17 3.14 4.08 3.14 1.07 0 2.05-.4 2.8-1.07.75-.66 1.27-1.59 1.39-2.66l.44-3.77c3.23.39 6.08 2.29 7.7 5.12.89 1.56 1.36 3.32 1.36 5.12v7.26h-8v4h-10l-1.15-1.15c-.54-.54-1.28-.85-2.05-.85-1.1 0-2.11.62-2.6 1.61l-.2.39h-2c-.73 0-1.41.2-2 .54v-8.27-.08c0-2.31-1.88-4.19-4.19-4.19h-.08c-1.11 0-2.17.44-2.96 1.23z" fill="#ff826e"/></g><g><path d="m52.94 32.5-.44 3.77c-.12 1.07-.64 2-1.39 2.66-.75.67-1.73 1.07-2.8 1.07-1.91 0-3.59-1.29-4.08-3.14l-.23-.86c1.76 0 3.3-1.2 3.73-2.91l.27-1.09 4.71.47c.08.01.15.02.23.03z" fill="#fc6e51"/></g><g><path d="m44 36-.23.86c-.49 1.85-2.17 3.14-4.08 3.14-1.07 0-2.05-.4-2.8-1.07-.75-.66-1.27-1.59-1.39-2.66l-.44-3.77c.08-.01.15-.02.23-.03l4.71-.47.27 1.09c.21.85.71 1.58 1.37 2.1.66.51 1.48.81 2.36.81z" fill="#fc6e51"/></g><g><path d="m26 56v6h-8.55c1.63 0 3.2-.65 4.36-1.81z" fill="#4fc1e9"/></g><g><path d="m17.45 62h-9.45v-15l1 3 2.59 7.78c.42 1.26 1.22 2.32 2.25 3.06 1.02.74 2.28 1.16 3.61 1.16z" fill="#4fc1e9"/></g><g><path d="m23.76 42.11.82 1.92c-1.46.2-2.58 1.45-2.58 2.97v2l-2.45 2.45-1.25-4.24-1.97-6.7c-.27-.93-.76-1.77-1.4-2.46l.01-.01 3.06-2.04c2.58 1.29 4.62 3.46 5.76 6.11z" fill="#4fc1e9"/></g><g><path d="m16.33 40.51 1.97 6.7-9.3 2.79-1-3-1.78-5.34c-.15-.44-.22-.9-.22-1.36 0-1.18.48-2.26 1.26-3.04.71-.71 1.68-1.18 2.74-1.25.1-.01.2-.01.3-.01 1.4 0 2.7.46 3.76 1.25.32.24.61.5.87.8.64.69 1.13 1.53 1.4 2.46z" fill="#4fc1e9"/></g><g><path d="m12.41 12.24c-1.46.74-2.41 2.25-2.41 3.92v.84h-.67c-.92 0-1.75.37-2.35.98-.61.6-.98 1.43-.98 2.35 0 1.05.49 2.04 1.33 2.67l2.67 2v6l-1.87-1.4c-1.93-1.45-3.46-3.31-4.51-5.41s-1.62-4.45-1.62-6.86c0-8.47 6.86-15.33 15.33-15.33h4.67c1.66 0 3.16.67 4.24 1.76 1.09 1.08 1.76 2.58 1.76 4.24 0 2.81-1.93 5.17-4.54 5.82-.47.12-.96.18-1.46.18h-6.63c-.93 0-1.77-.38-2.38-.99-.23-.23-.42-.48-.58-.77z" fill="#b27946"/></g><g><path d="m53 22c.83 0 1.58-.34 2.12-.88s.88-1.29.88-2.12c0-.73-.26-1.4-.69-1.92l.2-.62c.25-.72.4-1.46.46-2.22 3.46.88 6.03 4.02 6.03 7.76 0 4.42-3.58 8-8 8-.43 0-.85-.03-1.26-.1.79-.97 1.26-2.21 1.26-3.56 0-1.5-.6-2.94-1.66-4l-.34-.34z" fill="#e6e9ed"/></g><g><path d="m35 16c-.93 0-1.76.42-2.31 1.08l-.43-1.29c-.17-.52-.26-1.07-.26-1.63 0-.94.3-1.84.83-2.56.53-.73 1.27-1.3 2.17-1.6.28-2.28 1.4-4.28 3.02-5.71s3.74-2.29 6.04-2.29h.48c6.33 0 11.46 5.13 11.46 11.46 0 .26-.01.52-.03.78-.06.76-.21 1.5-.46 2.22l-.2.62c-.55-.66-1.38-1.08-2.31-1.08h-1.25c-.37-1.41-1.1-2.66-2.09-3.66-1.45-1.44-3.45-2.34-5.66-2.34-3.73 0-6.86 2.55-7.75 6z" fill="#e6e9ed"/></g><g><path d="m18 32v4l-3.06 2.04-.01.01c-.26-.3-.55-.56-.87-.8-1.06-.79-2.36-1.25-3.76-1.25-.1 0-.2 0-.3.01v-5.01-6l-2.67-2c-.84-.63-1.33-1.62-1.33-2.67 0-.92.37-1.75.98-2.35.6-.61 1.43-.98 2.35-.98h.67v-.84c0-1.67.95-3.18 2.41-3.92.16.29.35.54.58.77.61.61 1.45.99 2.38.99h6.63c.5 0 .99-.06 1.46-.18.79 1.47 2.54 5.08 2.54 8.18l-2 1v3c0 3.31-2.69 6-6 6z" fill="#f0d0b4"/></g><g><path d="m34 46.19v.08c0 1.11-.44 2.17-1.22 2.95l-6.78 6.78-4.19 4.19c-1.16 1.16-2.73 1.81-4.36 1.81-1.33 0-2.59-.42-3.61-1.16-1.03-.74-1.83-1.8-2.25-3.06l-2.59-7.78 9.3-2.79 1.25 4.24 2.45-2.45v-2c0-1.52 1.12-2.77 2.58-2.97.14-.02.28-.03.42-.03h1l.77-.77c.79-.79 1.85-1.23 2.96-1.23h.08c2.31 0 4.19 1.88 4.19 4.19z" fill="#f0d0b4"/></g><g><path d="m54 54v-4h8v5c0 3.87-3.13 7-7 7h-19c-1.1 0-2.1-.45-2.83-1.17-.72-.73-1.17-1.73-1.17-2.83 0-1.48.8-2.77 2-3.46.59-.34 1.27-.54 2-.54h2l.2-.39c.49-.99 1.5-1.61 2.6-1.61.77 0 1.51.31 2.05.85l1.15 1.15z" fill="#f0d0b4"/></g><g><path d="m48 32-.27 1.09c-.43 1.71-1.97 2.91-3.73 2.91-.88 0-1.7-.3-2.36-.81-.66-.52-1.16-1.25-1.37-2.1l-.27-1.09z" fill="#f0d0b4"/></g><g><path d="m51.75 16h1.25c.93 0 1.76.42 2.31 1.08.43.52.69 1.19.69 1.92 0 .83-.34 1.58-.88 2.12s-1.29.88-2.12.88h-1v-4c0-.69-.09-1.36-.25-2z" fill="#f0d0b4"/></g><g><path d="m35 16h1.25c-.16.64-.25 1.31-.25 2v4h-1c-.83 0-1.58-.34-2.12-.88s-.88-1.29-.88-2.12c0-.73.26-1.4.69-1.92.55-.66 1.38-1.08 2.31-1.08z" fill="#f0d0b4"/></g><g><path d="m54 26.34c0 1.35-.47 2.59-1.26 3.56-.13.15-.26.3-.4.44-1.02 1.03-2.44 1.66-4 1.66h-.34-8-.34c-3.13 0-5.66-2.53-5.66-5.66 0-1.5.6-2.94 1.66-4l.34-.34h5c.55 0 1-.45 1-1v-1h4v1c0 .55.45 1 1 1h5l.34.34c1.06 1.06 1.66 2.5 1.66 4z" fill="#f0d0b4"/></g><g><path d="m36.25 16c.89-3.45 4.02-6 7.75-6 2.21 0 4.21.9 5.66 2.34.99 1 1.72 2.25 2.09 3.66.16.64.25 1.31.25 2h-5c-.55 0-1 .45-1 1v1h-4v-1c0-.55-.45-1-1-1h-5c0-.69.09-1.36.25-2z" fill="#f0d0b4"/></g><g><path d="m52 18v4h-5c-.55 0-1-.45-1-1v-1-1c0-.55.45-1 1-1z" fill="#69d6f4"/></g><g><path d="m42 20v1c0 .55-.45 1-1 1h-5v-4h5c.55 0 1 .45 1 1z" fill="#69d6f4"/></g></g><g><path d="m17 20h2c0-.551.449-1 1-1s1 .449 1 1h2c0-1.654-1.346-3-3-3s-3 1.346-3 3z"/><path d="m41 13h6v2h-6z"/><path d="m44 29c1.615 0 3.067-.897 3.789-2.342l.105-.211-1.789-.895-.105.212c-.381.762-1.147 1.236-2 1.236s-1.619-.474-2-1.236l-.105-.211-1.789.895.105.211c.722 1.444 2.174 2.341 3.789 2.341z"/><path d="m52.805 31.476-.204-.02c.195-.162.377-.338.552-.522.282.026.563.066.847.066 4.962 0 9-4.038 9-9 0-3.851-2.431-7.23-6.002-8.487 0-.016.002-.033.002-.049 0-6.873-5.591-12.464-12.464-12.464h-.474c-4.898 0-9.08 3.521-9.962 8.285-1.877.878-3.1 2.767-3.1 4.877 0 .665.106 1.32.316 1.949l.275.825c-.367.605-.591 1.306-.591 2.064 0 1.855 1.276 3.406 2.992 3.856-.642 1.039-.992 2.235-.992 3.487 0 2.052.935 3.89 2.4 5.112l-.204.02c-3.636.363-6.89 2.475-8.704 5.648-.936 1.638-1.435 3.492-1.476 5.375l-.335-.782c-1.146-2.674-3.154-4.884-5.681-6.304v-2.492c3.387-.488 6-3.401 6-6.92v-2.382l2-1v-.618c0-2.741-1.245-5.786-2.135-7.62 2.434-1.098 4.135-3.542 4.135-6.38 0-3.86-3.14-7-7-7h-4.667c-9.006 0-16.333 7.327-16.333 16.333 0 5.113 2.442 9.998 6.533 13.066l1.467 1.101v3.681c-2.292.584-4 2.649-4 5.121 0 .57.091 1.135.272 1.677l1.728 5.184v15.837h48c4.411 0 8-3.589 8-8v-12.259c0-1.967-.516-3.909-1.492-5.617-1.814-3.174-5.067-5.285-8.703-5.648zm-8.805 3.524c-1.252 0-2.337-.817-2.705-2h5.41c-.368 1.183-1.453 2-2.705 2zm-4.698-1.668c.433 1.733 1.769 3.032 3.428 3.483-.442 1.294-1.655 2.185-3.039 2.185-1.634 0-3.009-1.224-3.199-2.847l-.324-2.765 3.07-.307zm9.396 0 .063-.251 3.07.307-.324 2.765c-.19 1.623-1.565 2.847-3.198 2.847-1.383 0-2.597-.891-3.038-2.185 1.658-.451 2.993-1.75 3.427-3.483zm6.302-14.332c0 1.103-.897 2-2 2v-3c0-.338-.022-.671-.059-1h.059c1.103 0 2 .897 2 2zm6 3c0 3.707-2.898 6.741-6.546 6.977.35-.808.546-1.698.546-2.634 0-1.253-.35-2.449-.992-3.488 1.716-.449 2.992-2 2.992-3.855 0-.758-.224-1.459-.591-2.064l.054-.162c.131-.393.23-.794.313-1.197 2.532 1.09 4.224 3.591 4.224 6.423zm-25.684-11.051.598-.199.078-.625c.508-4.062 3.977-7.125 8.07-7.125h.474c5.77 0 10.464 4.694 10.464 10.464 0 .662-.104 1.312-.256 1.953-.529-.259-1.116-.417-1.744-.417h-.525c-1.24-3.49-4.565-6-8.475-6s-7.235 2.51-8.475 6h-.525c-.648 0-1.252.17-1.794.445-.135-.415-.206-.846-.206-1.283 0-1.46.931-2.751 2.316-3.213zm9.684 8.051h-2c0-1.103-.897-2-2-2h-3.929c.487-3.388 3.408-6 6.929-6s6.442 2.612 6.929 6h-3.929c-1.103 0-2 .897-2 2zm-4 0v2h-4v-2zm6 0h4v2h-4zm-14 0c0-1.103.897-2 2-2h.059c-.037.329-.059.662-.059 1v3c-1.103 0-2-.897-2-2zm3.364 4.05.05-.05h4.586c1.103 0 2-.897 2-2h2c0 1.103.897 2 2 2h4.586l.05.05c.88.88 1.364 2.049 1.364 3.293 0 2.568-2.089 4.657-4.657 4.657h-8.687c-2.567 0-4.656-2.089-4.656-4.657 0-1.244.484-2.413 1.364-3.293zm-8.136 15.066c1.29-2.255 3.464-3.855 5.961-4.443l.317 2.713c.307 2.631 2.537 4.614 5.185 4.614 1.759 0 3.355-.885 4.309-2.279.953 1.394 2.55 2.279 4.309 2.279 2.648 0 4.878-1.983 5.185-4.614l.317-2.713c2.497.589 4.671 2.188 5.961 4.443.803 1.406 1.228 3.006 1.228 4.625v6.259h-6v-2.764l.895-1.789-1.789-.895-1.106 2.212v7.236h-8.586l-.856-.855c-.738-.739-1.719-1.145-2.762-1.145-1.429 0-2.719.762-3.41 2h-1.386c-.342 0-.677.035-1 .101v-6.83h-.008c0-.028.008-.055.008-.083 0-2.861-2.328-5.188-5.267-5.188-.958 0-1.869.274-2.669.758.136-1.278.524-2.522 1.164-3.642zm3.798 22.884h-5.026v-4.586l6-6v3.611c-1.207.914-2 2.348-2 3.974 0 1.131.391 2.163 1.026 3.001zm-14.581 0c-2.228 0-4.198-1.42-4.902-3.533l-2.268-6.805 7.347-2.204.797 2.709-4.125 4.126 1.414 1.414 7.292-7.293v-2.414c0-1.103.897-2 2-2h1.415l1.066-1.066c.602-.603 1.402-.934 2.331-.934 1.758 0 3.188 1.431 3.188 3.271 0 .847-.33 1.645-.93 2.244l-10.971 10.971c-.975.977-2.273 1.514-3.654 1.514zm5.398-18.496.395.923c-1.32.654-2.238 2.002-2.238 3.573v1.586l-.97.971-2.745-9.332c-.206-.701-.526-1.345-.917-1.935l1.679-1.119c2.133 1.204 3.827 3.074 4.796 5.333zm2.134-21.11-1.977.988v3.618c0 2.757-2.243 5-5 5h-5v2h4v2.465l-1.976 1.317c-1.12-.96-2.515-1.575-4.024-1.724v-10.558l-3.066-2.3c-.585-.438-.934-1.136-.934-1.867 0-1.286 1.047-2.333 2.333-2.333h1.667v-1.838c0-1.007.441-1.931 1.181-2.564.798.857 1.927 1.402 3.188 1.402h6.631c.31 0 .613-.027.912-.066.747 1.489 1.887 4.096 2.065 6.46zm-16.244 7.406c-3.59-2.693-5.733-6.979-5.733-11.467 0-7.903 6.43-14.333 14.333-14.333h4.667c2.757 0 5 2.243 5 5s-2.243 5-5 5h-6.631c-1.306 0-2.369-1.063-2.369-2.369 0-1.089.738-2.035 1.795-2.299l1.448-.362-.485-1.94-1.448.362c-1.949.487-3.31 2.23-3.31 4.239 0 .42.079.819.19 1.204-1.326.975-2.143 2.498-2.188 4.178-2.235.17-4.002 2.043-4.002 4.32 0 1.356.648 2.652 1.733 3.466l2.267 1.701v3.5zm1.569 8.2c2.326 0 4.408 1.559 5.064 3.789l1.691 5.75-7.416 2.225-2.472-7.417c-.112-.338-.169-.69-.169-1.045 0-1.821 1.481-3.302 3.302-3.302zm-1.302 24v-7.837l1.646 4.937c.377 1.131 1.02 2.114 1.839 2.9zm13.513-.1 2.487-2.486v2.586h-2.597c.036-.034.075-.064.11-.1zm32.487.1h-19c-1.654 0-3-1.346-3-3s1.346-3 3-3h2.618l.473-.946c.325-.651.978-1.054 1.705-1.054.501 0 .993.204 1.348.559l1.442 1.441h13.414v-2h-2v-2h6v4c0 3.309-2.691 6-6 6z"/></g></g></svg>