<?xml version="1.0" encoding="iso-8859-1"?>
<!-- Generator: Adobe Illustrator 19.0.0, SVG Export Plug-In . SVG Version: 6.00 Build 0)  -->
<svg version="1.1" id="Capa_1" xmlns="http://www.w3.org/2000/svg" xmlns:xlink="http://www.w3.org/1999/xlink" x="0px" y="0px"
	 viewBox="0 0 423.253 423.253" style="enable-background:new 0 0 423.253 423.253;" xml:space="preserve">
<circle style="fill:#00E7FF;" cx="248.9" cy="191.147" r="75.093"/>
<polyline style="fill:#FFFFFF;" points="221.593,211.627 221.593,245.76 180.633,245.76 180.633,211.627 "/>
<path style="fill:#602F75;" d="M221.593,252.587h-40.96c-3.768,0-6.827-3.058-6.827-6.827v-34.133c0-3.768,3.058-6.827,6.827-6.827
	c3.768,0,6.827,3.058,6.827,6.827v27.307h27.307v-27.307c0-3.768,3.058-6.827,6.827-6.827s6.827,3.058,6.827,6.827v34.133
	C228.42,249.528,225.361,252.587,221.593,252.587z"/>
<ellipse style="fill:#FFFFFF;" cx="201.113" cy="164.83" rx="39.011" ry="53.637"/>
<g>
	<path style="fill:#602F75;" d="M201.113,225.28c-25.272,0-45.838-27.122-45.838-60.464s20.562-60.467,45.838-60.467
		s45.838,27.126,45.838,60.467S226.385,225.28,201.113,225.28z M201.113,118.002c-17.746,0-32.184,20.999-32.184,46.814
		c0,25.812,14.435,46.81,32.184,46.81s32.184-20.999,32.184-46.81C233.294,139.005,218.859,118.002,201.113,118.002z"/>
	<path style="fill:#602F75;" d="M201.113,118.002c-3.768,0-6.827-3.058-6.827-6.827V81.92c0-3.768,3.058-6.827,6.827-6.827
		s6.827,3.058,6.827,6.827v29.256C207.94,114.947,204.881,118.002,201.113,118.002z"/>
	<path style="fill:#602F75;" d="M225.491,127.758c-1.748,0-3.492-0.666-4.826-2c-2.666-2.666-2.666-6.987,0-9.653l19.507-19.507
		c2.666-2.666,6.987-2.666,9.653,0c2.666,2.666,2.666,6.987,0,9.653l-19.507,19.507
		C228.986,127.089,227.239,127.758,225.491,127.758z"/>
	<path style="fill:#602F75;" d="M176.732,127.758c-1.748,0-3.492-0.666-4.826-2l-19.507-19.507c-2.666-2.666-2.666-6.987,0-9.653
		c2.666-2.666,6.987-2.666,9.653,0l19.507,19.507c2.666,2.666,2.666,6.987,0,9.653C180.227,127.089,178.479,127.758,176.732,127.758
		z"/>
	<path style="fill:#602F75;" d="M240.121,157.017c-2.86,0-5.523-1.809-6.475-4.669c-1.195-3.577,0.741-7.444,4.318-8.636
		l29.256-9.752c3.591-1.208,7.448,0.744,8.636,4.318c1.195,3.577-0.741,7.444-4.318,8.636l-29.256,9.752
		C241.565,156.904,240.834,157.017,240.121,157.017z"/>
	<path style="fill:#602F75;" d="M162.102,157.017c-0.713,0-1.444-0.113-2.161-0.355l-29.256-9.752
		c-3.577-1.195-5.509-5.059-4.318-8.636c1.191-3.574,5.048-5.526,8.636-4.318l29.256,9.752c3.577,1.195,5.509,5.059,4.318,8.636
		C167.625,155.208,164.963,157.017,162.102,157.017z"/>
</g>
<polygon style="fill:#FFFFFF;" points="139.673,259.413 98.713,259.413 57.753,109.227 78.233,95.573 "/>
<path style="fill:#602F75;" d="M139.673,266.24h-40.96c-3.079,0-5.775-2.062-6.588-5.031l-40.96-150.187
	c-0.775-2.836,0.355-5.847,2.799-7.475l20.48-13.653c1.731-1.157,3.895-1.454,5.885-0.816c1.98,0.642,3.564,2.15,4.297,4.099
	l61.44,163.84c0.782,2.096,0.495,4.444-0.782,6.287C144.008,265.144,141.912,266.24,139.673,266.24z M103.925,252.587h25.897
	L74.861,106.025l-9.23,6.151L103.925,252.587z"/>
<rect x="37.273" y="61.44" style="fill:#FFFFFF;" width="54.613" height="20.48"/>
<path style="fill:#602F75;" d="M91.886,88.747H37.273c-3.768,0-6.827-3.058-6.827-6.827V61.44c0-3.768,3.058-6.827,6.827-6.827
	h54.613c3.768,0,6.827,3.058,6.827,6.827v20.48C98.713,85.688,95.655,88.747,91.886,88.747z M44.1,75.093h40.96v-6.827H44.1
	C44.1,68.267,44.1,75.093,44.1,75.093z"/>
<rect x="126.02" y="354.987" style="fill:#FFFFFF;" width="150.187" height="61.44"/>
<path style="fill:#602F75;" d="M276.206,423.253H126.02c-3.768,0-6.827-3.058-6.827-6.827v-61.44c0-3.768,3.058-6.827,6.827-6.827
	h150.187c3.768,0,6.827,3.058,6.827,6.827v61.44C283.033,420.195,279.975,423.253,276.206,423.253z M132.846,409.6H269.38v-47.787
	H132.846V409.6z"/>
<g>
	<rect x="132.846" y="375.467" style="fill:#EA3457;" width="136.533" height="34.133"/>
	<path style="fill:#EA3457;" d="M85.06,40.96c0-11.312-9.168-34.133-20.48-34.133S44.1,29.648,44.1,40.96s9.168,20.48,20.48,20.48
		S85.06,52.272,85.06,40.96z"/>
</g>
<path style="fill:#602F75;" d="M64.58,68.267c-15.056,0-27.307-12.25-27.307-27.307C37.273,26.897,47.906,0,64.58,0
	s27.307,26.897,27.307,40.96C91.886,56.016,79.636,68.267,64.58,68.267z M64.58,13.653c-5.103,0-13.653,17.101-13.653,27.307
	c0,7.53,6.124,13.653,13.653,13.653S78.233,48.49,78.233,40.96C78.233,30.754,69.683,13.653,64.58,13.653z"/>
<rect x="50.926" y="81.92" style="fill:#FFFFFF;" width="27.307" height="47.787"/>
<path style="fill:#602F75;" d="M78.233,136.533H50.926c-3.768,0-6.827-3.058-6.827-6.827V81.92c0-3.768,3.058-6.827,6.827-6.827
	h27.307c3.768,0,6.827,3.058,6.827,6.827v47.787C85.06,133.475,82.001,136.533,78.233,136.533z M57.753,122.88h13.653V88.747H57.753
	C57.753,88.747,57.753,122.88,57.753,122.88z"/>
<path style="fill:#FFFFFF;" d="M276.206,276.757c0-17.121-13.879-30.996-30.996-30.996h-92.641l-26.549-47.787L64.58,245.76
	l47.787,54.613l-13.653,34.133l47.787,47.787l19.767-27.307h109.94V276.757z"/>
<g>
	<path style="fill:#602F75;" d="M146.5,389.12c-1.802,0-3.543-0.713-4.826-2l-47.787-47.787c-1.929-1.929-2.526-4.826-1.512-7.363
		l12.1-30.249l-45.032-51.466c-1.236-1.417-1.836-3.277-1.659-5.147c0.181-1.87,1.123-3.587,2.608-4.741l61.44-47.787
		c1.57-1.222,3.587-1.69,5.557-1.3c1.949,0.399,3.632,1.635,4.601,3.372l24.593,44.281h88.627c20.855,0,37.823,16.968,37.823,37.823
		v78.23c0,3.768-3.058,6.827-6.827,6.827H169.751l-17.722,24.484c-1.174,1.621-2.997,2.642-4.99,2.802
		C146.858,389.113,146.677,389.12,146.5,389.12z M106.721,332.865l38.943,38.939l15.07-20.821c1.283-1.775,3.342-2.823,5.53-2.823
		H269.38v-71.403c0-13.326-10.844-24.17-24.17-24.17h-92.645c-2.482,0-4.765-1.345-5.967-3.509l-22.678-40.823l-49.442,38.451
		l43.022,49.169c1.69,1.932,2.154,4.649,1.205,7.035L106.721,332.865z"/>
	<path style="fill:#602F75;" d="M166.973,361.813c-1.423,0-2.86-0.444-4.089-1.365c-3.017-2.26-3.625-6.54-1.362-9.557l61.44-81.92
		c2.26-3.007,6.533-3.632,9.557-1.362c3.017,2.26,3.625,6.54,1.362,9.557l-61.44,81.92
		C171.1,360.871,169.048,361.813,166.973,361.813z"/>
</g>
<polygon style="fill:#FFFFFF;" points="310.34,361.813 276.206,361.813 276.206,266.24 310.34,320.853 "/>
<g>
	<path style="fill:#602F75;" d="M310.34,368.64h-34.133c-3.768,0-6.827-3.058-6.827-6.827V266.24c0-3.048,2.017-5.724,4.943-6.564
		c2.915-0.833,6.055,0.358,7.673,2.946l34.133,54.613c0.676,1.082,1.038,2.338,1.038,3.618v40.96
		C317.167,365.582,314.108,368.64,310.34,368.64z M283.033,354.987h20.48v-32.177l-20.48-32.768V354.987z"/>
	<path style="fill:#602F75;" d="M112.373,307.2c-0.55,0-1.106-0.065-1.662-0.205c-3.656-0.915-5.881-4.622-4.966-8.281l6.827-27.307
		c0.918-3.656,4.628-5.885,8.281-4.966c3.656,0.915,5.881,4.622,4.966,8.281l-6.827,27.307
		C118.214,305.132,115.428,307.2,112.373,307.2z"/>
	<path style="fill:#602F75;" d="M112.373,238.933c-2.205,0-4.369-1.065-5.687-3.041c-2.089-3.137-1.242-7.376,1.894-9.465
		l20.48-13.653c3.14-2.099,7.369-1.242,9.465,1.894c2.089,3.137,1.242,7.376-1.894,9.465l-20.48,13.653
		C114.988,238.565,113.67,238.933,112.373,238.933z"/>
</g>
<rect x="296.69" y="286.711" transform="matrix(-0.866 -0.5 0.5 -0.866 448.3621 795.9608)" style="fill:#FFE600;" width="68.265" height="102.398"/>
<path style="fill:#602F75;" d="M334.772,406.153c-1.157,0-2.331-0.294-3.407-0.915l-59.119-34.133
	c-3.267-1.888-4.383-6.059-2.499-9.325l51.2-88.678c1.884-3.267,6.048-4.386,9.325-2.499l59.119,34.133
	c3.267,1.888,4.383,6.059,2.499,9.325l-51.2,88.678C339.425,404.931,337.131,406.153,334.772,406.153z M284.986,362.694
	l47.292,27.307l44.373-76.855l-47.292-27.307L284.986,362.694z"/>
<rect x="336.522" y="334.641" transform="matrix(-0.5 0.866 -0.866 -0.5 841.675 217.2349)" style="fill:#FFFFFF;" width="43.212" height="33.887"/>
<path style="fill:#602F75;" d="M361.99,385.584c-1.157,0-2.331-0.294-3.406-0.915l-29.348-16.944
	c-1.567-0.908-2.714-2.396-3.181-4.147c-0.471-1.751-0.222-3.615,0.679-5.181l21.606-37.424c1.881-3.267,6.045-4.386,9.325-2.499
	l29.348,16.944c1.567,0.908,2.714,2.396,3.181,4.147c0.471,1.751,0.222,3.615-0.679,5.181l-21.606,37.424
	C366.643,384.358,364.349,385.584,361.99,385.584z M341.975,359.315l17.521,10.117l14.78-25.597l-17.521-10.117L341.975,359.315z"/>
<g>
</g>
<g>
</g>
<g>
</g>
<g>
</g>
<g>
</g>
<g>
</g>
<g>
</g>
<g>
</g>
<g>
</g>
<g>
</g>
<g>
</g>
<g>
</g>
<g>
</g>
<g>
</g>
<g>
</g>
</svg>
