<svg id="Layer_1" enable-background="new 0 0 510 510" height="512" viewBox="0 0 510 510" width="512" xmlns="http://www.w3.org/2000/svg"><g><path id="XMLID_2213_" d="m75 0h-75v165l45 15 30-15 15-75z" fill="#ff435b"/><path id="XMLID_2209_" d="m75 0v165l37.5 10 37.5-10v-165z" fill="#d0004f"/><path id="XMLID_2207_" d="m345 360h-89.943l-52.307 30.25-22.724 44.75 90.307 10 74.667-10 10-34.667z" fill="#76e2f8"/><path id="XMLID_2202_" d="m345 435h-164.974l-105.026 75h270l10-37.501z" fill="#4bb9ec"/><path id="XMLID_2161_" d="m510 435v-75h-165v75l82.5 10z" fill="#4bb9ec"/><path id="XMLID_2149_" d="m345 435v75h165v-75z" fill="#4b7eec"/><path id="XMLID_568_" d="m267.461 135.725c-22.421 22.468-88.96 89.151-117.461 117.713l-10.232 49.23 9.732 56.832-.068.568 89.615-79.615 81.571-91.571-17.751-37.751z" fill="#00b44b"/><path id="XMLID_2434_" d="m149.432 360.068-14.44 119.95c276.923-276.818 113.098-113.071 238.409-238.353l-18.405-38.405-34.378-14.378z" fill="#00964b"/><path id="XMLID_2452_" d="m60 435v-30h15l14.5-41.303-14.5-48.697 10-75-10-75h-75v270c0 41.421 33.578 75 75 75l10-37.5-10-37.5z" fill="#ff7b4a"/><path id="XMLID_2367_" d="m75 165v240h15v30h-15v75c41.422 0 75-33.579 75-75 0-11.41 0-228.93 0-270-20.194 0-63.236 0-75 0z" fill="#ff435b"/><path id="XMLID_2214_" d="m384.009 18.925-116.548 116.8 53.157 53.157 63.157-43.157 53.517-73.517c-4.796-4.797-47.831-47.831-53.283-53.283z" fill="#90cc1c"/><path id="XMLID_2429_" d="m437.292 72.208-116.674 116.674 52.783 52.783c9.4-9.401 100.917-100.918 116.674-116.674z" fill="#00b44b"/></g></svg>