<?xml version="1.0"?>
<svg xmlns="http://www.w3.org/2000/svg" xmlns:xlink="http://www.w3.org/1999/xlink" xmlns:svgjs="http://svgjs.com/svgjs" version="1.1" width="512" height="512" x="0" y="0" viewBox="0 0 512 512" style="enable-background:new 0 0 512 512" xml:space="preserve" class=""><g><g xmlns="http://www.w3.org/2000/svg"><path d="m256 304v160c0 26.47-21.53 48-48 48h-160c-26.47 0-48-21.53-48-48v-160c0-26.47 21.53-48 48-48h160c26.47 0 48 21.53 48 48z" fill="#6fcbbe" data-original="#acebe2" style="" class=""/><path d="m256 304v160c0 26.47-21.53 48-48 48h-32c26.47 0 48-21.53 48-48v-160c0-26.47-21.53-48-48-48h32c26.47 0 48 21.53 48 48z" fill="#73a59e" data-original="#98d7ce" style="" class=""/><path d="m512 304v160c0 26.47-21.53 48-48 48h-160c-26.47 0-48-21.53-48-48v-160c0-26.47 21.53-48 48-48h160c26.47 0 48 21.53 48 48z" fill="#fb891e" data-original="#f3d4b7" style="" class=""/><path d="m512 304v160c0 26.47-21.53 48-48 48h-32c26.47 0 48-21.53 48-48v-160c0-26.47-21.53-48-48-48h32c26.47 0 48 21.53 48 48z" fill="#dd7717" data-original="#e1c3a7" style="" class=""/><path d="m392 48v160c0 26.47-21.53 48-48 48h-176c-26.47 0-48-21.53-48-48v-160c0-26.47 21.53-48 48-48h176c26.47 0 48 21.53 48 48z" fill="#ff1f4e" data-original="#f79caf" style="" class=""/><path d="m392 48v160c0 26.47-21.53 48-48 48h-32c26.47 0 48-21.53 48-48v-160c0-26.47-21.53-48-48-48h32c26.47 0 48 21.53 48 48z" fill="#e1002f" data-original="#e3889b" style="" class=""/><g fill="#a18b76"><path d="m388 320h-32c-8.837 0-16 7.164-16 16s7.163 16 16 16h32c4.411 0 8 3.589 8 8s-3.589 8-8 8h-16c-8.837 0-16 7.164-16 16s7.163 16 16 16h16c4.411 0 8 3.589 8 8s-3.589 8-8 8h-32c-8.837 0-16 7.164-16 16s7.163 16 16 16h32c33.068 0 51.604-37.916 31.978-64 19.65-26.116 1.059-64-31.978-64z" fill="#ffffff" data-original="#a18b76" style="" class=""/><path d="m156 448h-56c-8.836 0-16-7.164-16-16v-8c0-5.167 2.496-10.016 6.7-13.02l39.726-28.375c5.995-4.282 9.574-11.237 9.574-18.605 0-6.617-5.383-12-12-12s-12 5.383-12 12c0 8.836-7.164 16-16 16s-16-7.164-16-16c0-24.262 19.738-44 44-44s44 19.738 44 44c0 17.679-8.589 34.369-22.975 44.644l-10.297 7.356h17.272c8.836 0 16 7.164 16 16s-7.164 16-16 16z" fill="#ffffff" data-original="#a18b76" style="" class=""/><path d="m264 64h-16c-8.836 0-16 7.164-16 16s7.164 16 16 16v80c0 8.836 7.164 16 16 16 8.837 0 16-7.164 16-16v-96c0-8.836-7.163-16-16-16z" fill="#ffffff" data-original="#a18b76" style="" class=""/></g></g></g></svg>
