<svg id="Capa_1" enable-background="new 0 0 512 512" height="512" viewBox="0 0 512 512" width="512" xmlns="http://www.w3.org/2000/svg"><g><path d="m446.089 365.156h-421.518c-9.428 0-17.071-7.643-17.071-17.071v-287.343c0-9.428 7.643-17.071 17.071-17.071h421.518c9.428 0 17.071 7.643 17.071 17.071v287.343c-.001 9.428-7.643 17.071-17.071 17.071z" fill="#f6f9f9"/><path d="m446.089 43.672h-22.03c9.428 0 17.071 7.643 17.071 17.071v287.343c0 9.428-7.643 17.071-17.071 17.071h22.03c9.428 0 17.071-7.643 17.071-17.071v-287.344c-.001-9.428-7.643-17.07-17.071-17.07z" fill="#dfeaef"/><path d="m145.616 215.529h-52.355c-15.896 5.14-27.396 20.054-27.396 37.662v45.013c0 3.961 3.211 7.171 7.171 7.171h92.806c3.96 0 7.171-3.211 7.171-7.171v-45.013c0-17.608-11.5-32.522-27.397-37.662z" fill="#ffe07d"/><path d="m145.617 215.529h-17.541c15.896 5.14 27.396 20.054 27.396 37.662v52.184h10.37c3.961 0 7.171-3.211 7.171-7.171v-45.013c0-17.608-11.5-32.522-27.396-37.662z" fill="#ffd064"/><path d="m133.969 103.453h-29.061c-20.737 0-37.622 19.762-37.791 44.289-.152 22.048-2.574 44.179-10.717 57.571 36.99 13.621 89.088 13.621 126.078 0-8.143-13.393-10.565-35.523-10.717-57.571-.169-24.527-17.054-44.289-37.792-44.289z" fill="#365e7d"/><path d="m153.464 153.65c.129 21.229 1.899 42.522 7.42 57.757 7.577-1.579 14.839-3.607 21.593-6.094-8.143-13.393-10.565-35.523-10.717-57.572-.169-24.527-17.054-44.289-37.791-44.289h-18.296c20.737.001 37.622 22.399 37.791 50.198z" fill="#2b4d66"/><path d="m119.439 226.39c-20.424 0-36.981-16.557-36.981-36.981v-30.672c0-1.005.854-1.79 1.857-1.721 17.026 1.182 35.711-.841 45.364-7.566.641-.447 1.5-.406 2.093.102 5.83 4.996 12.544 8.398 22.761 7.527 1.012-.086 1.886.701 1.886 1.716v30.615c0 20.423-16.556 36.98-36.98 36.98z" fill="#ffddce"/><path d="m154.534 157.079c-5.906.504-10.637-.426-14.708-2.261v34.591c0 17.57-12.257 32.267-28.684 36.035 2.668.612 5.443.946 8.297.946 20.424 0 36.981-16.557 36.981-36.981v-30.615c-.001-1.014-.875-1.801-1.886-1.715z" fill="#ffcbbe"/><path d="m417.072 138.052h-129.43c-2.862 0-5.183-2.32-5.183-5.183v-30.598c0-2.862 2.32-5.183 5.183-5.183h129.429c2.862 0 5.183 2.32 5.183 5.183v30.598c.001 2.863-2.32 5.183-5.182 5.183z" fill="#365e7d"/><path d="m417.072 97.088h-19.696c2.862 0 5.183 2.321 5.183 5.183v30.599c0 2.862-2.32 5.183-5.183 5.183h19.696c2.863 0 5.183-2.321 5.183-5.183v-30.599c0-2.863-2.321-5.183-5.183-5.183z" fill="#2b4d66"/><path d="m361.655 293.441c28.327 0 52.931 16.233 64.999 39.886 1.757 3.443 5.363 5.536 9.222 5.308 36.819-2.169 68.442 27.192 68.624 64.477.174 35.869-29.912 65.215-65.782 65.215h-148.803c-31.446 0-57.508-25.201-57.63-56.647-.112-28.886 21.626-53.531 50.595-56.739 3.988-.442 7.245-3.339 8.271-7.218 8.253-31.209 36.734-54.282 70.504-54.282z" fill="#b1e4f9"/><g><path d="m429.386 339.342c-10.756-26.872-37.062-45.901-67.731-45.901-24.259 0-45.775 11.916-59.038 30.192 12.005-8.693 26.749-13.826 42.671-13.826 26.649 0 50.004 14.367 62.725 35.763 3.365 5.659 9.431 9.252 16.014 9.322 34.955.372 64.106 29.008 64.106 64.908 0 13.719-4.291 26.449-11.585 36.942 16.875-11.73 27.951-31.245 27.951-53.308.001-39.614-35.493-70.383-75.113-64.092z" fill="#90d8f9"/></g><g><path d="m189.559 207.785c.738-2.116.492-4.452-.673-6.368-6.212-10.219-9.45-28.295-9.625-53.727-.196-28.528-20.514-51.737-45.291-51.737h-29.062c-24.778 0-45.096 23.209-45.291 51.737-.176 25.433-3.414 43.509-9.626 53.727-1.165 1.916-1.411 4.252-.673 6.368.739 2.116 2.386 3.792 4.489 4.566 6.286 2.315 13.02 4.258 20.113 5.842-9.7 8.722-15.557 21.301-15.557 34.997v45.013c0 8.09 6.582 14.672 14.672 14.672h16.415c4.143 0 7.5-3.357 7.5-7.5s-3.357-7.5-7.5-7.5h-16.086v-44.685c0-12.579 7.254-23.76 18.399-28.997 7.602 6.061 17.219 9.697 27.675 9.697s20.073-3.635 27.675-9.697c11.145 5.237 18.399 16.418 18.399 28.997v44.685h-46.074c-4.143 0-7.5 3.357-7.5 7.5s3.357 7.5 7.5 7.5h46.403c8.09 0 14.671-6.582 14.671-14.672v-45.013c0-13.696-5.856-26.275-15.557-34.997 7.091-1.584 13.825-3.527 20.112-5.842 2.106-.774 3.752-2.449 4.492-4.566zm-99.601-18.376v-24.634c10.306.229 27.925-.485 40.251-6.908 4.395 3.158 10.435 6.228 18.71 6.762v24.78c0 16.256-13.225 29.481-29.48 29.481s-29.481-13.225-29.481-29.481zm71.631 14.176c1.503-4.456 2.33-9.22 2.33-14.176v-30.614c0-2.572-1.087-5.046-2.981-6.786-1.899-1.746-4.474-2.625-7.041-2.402-6.809.579-11.802-1.086-17.244-5.749-3.186-2.729-7.816-2.961-11.26-.561-7.179 5.001-23.096 7.449-40.56 6.237-2.543-.183-5.08.722-6.946 2.463-1.861 1.737-2.929 4.193-2.929 6.74v30.672c0 4.956.827 9.72 2.33 14.176-3.573-.795-7.043-1.686-10.386-2.683 5.022-12.601 7.557-30.104 7.716-53.108.139-20.314 13.728-36.841 30.291-36.841h29.062c16.562 0 30.151 16.526 30.291 36.841.158 23.005 2.69 40.507 7.715 53.108-3.345.997-6.815 1.888-10.388 2.683z"/><path d="m227.83 102.177v204.475c0 4.143 3.357 7.5 7.5 7.5s7.5-3.357 7.5-7.5v-204.475c0-4.143-3.357-7.5-7.5-7.5s-7.5 3.357-7.5 7.5z"/><path d="m429.755 102.271c0-6.993-5.689-12.683-12.683-12.683h-129.43c-6.993 0-12.683 5.689-12.683 12.683v30.599c0 6.994 5.689 12.684 12.683 12.684h129.43c6.993 0 12.683-5.689 12.683-12.684zm-15 28.282h-124.795v-25.965h124.795z"/><path d="m309.251 171.102h-21.138c-4.143 0-7.5 3.357-7.5 7.5s3.357 7.5 7.5 7.5h21.138c4.143 0 7.5-3.357 7.5-7.5s-3.357-7.5-7.5-7.5z"/><path d="m419.357 171.102h-81.137c-4.143 0-7.5 3.357-7.5 7.5s3.357 7.5 7.5 7.5h81.138c4.143 0 7.5-3.357 7.5-7.5s-3.358-7.5-7.501-7.5z"/><path d="m309.251 211.649h-21.138c-4.143 0-7.5 3.357-7.5 7.5s3.357 7.5 7.5 7.5h21.138c4.143 0 7.5-3.357 7.5-7.5s-3.357-7.5-7.5-7.5z"/><path d="m419.357 211.649h-81.137c-4.143 0-7.5 3.357-7.5 7.5s3.357 7.5 7.5 7.5h81.138c4.143 0 7.5-3.357 7.5-7.5s-3.358-7.5-7.501-7.5z"/><path d="m309.251 252.198h-21.138c-4.143 0-7.5 3.357-7.5 7.5s3.357 7.5 7.5 7.5h21.138c4.143 0 7.5-3.357 7.5-7.5s-3.357-7.5-7.5-7.5z"/><path d="m419.357 252.198h-81.137c-4.143 0-7.5 3.357-7.5 7.5s3.357 7.5 7.5 7.5h81.138c4.143 0 7.5-3.357 7.5-7.5s-3.358-7.5-7.501-7.5z"/><path d="m486.558 348.374c-4.878-4.164-10.232-7.599-15.898-10.299v-277.333c0-13.548-11.022-24.57-24.57-24.57h-92.876c-4.143 0-7.5 3.357-7.5 7.5s3.357 7.5 7.5 7.5h92.876c5.277 0 9.57 4.293 9.57 9.57v272.113c-7.042-1.606-14.335-2.17-21.652-1.604-13.422-27.709-41.226-45.31-72.352-45.31-19.179 0-37.763 6.889-52.33 19.396-12.831 11.018-21.853 25.759-25.813 42.003-10.697.94-20.829 4.487-29.671 10.315h-229.271c-5.277 0-9.571-4.294-9.571-9.571v-287.342c0-5.277 4.294-9.57 9.571-9.57h298.654c4.143 0 7.5-3.357 7.5-7.5s-3.357-7.5-7.5-7.5h-298.654c-13.549 0-24.571 11.022-24.571 24.57v287.343c0 13.549 11.022 24.571 24.571 24.571h213.251c-8.455 11.132-13.038 24.616-13.038 38.802 0 35.494 28.876 64.37 64.37 64.37h115.209c4.143 0 7.5-3.357 7.5-7.5s-3.357-7.5-7.5-7.5h-115.209c-27.223 0-49.37-22.147-49.37-49.37 0-13.226 5.191-25.669 14.618-35.035 9.312-9.252 21.696-14.335 34.908-14.335.126.001.255.002.377.001 3.674 0 6.81-2.663 7.401-6.294 2.465-15.129 10.281-29.007 22.008-39.076 11.849-10.174 26.963-15.777 42.559-15.777 26.9 0 50.753 16.167 60.768 41.188 1.301 3.251 4.682 5.168 8.139 4.62 16.609-2.637 33.467 2.113 46.257 13.032 12.826 10.949 20.181 26.861 20.181 43.653 0 31.646-25.747 57.394-57.395 57.394h-5.255c-4.143 0-7.5 3.357-7.5 7.5s3.357 7.5 7.5 7.5h5.255c39.919 0 72.395-32.476 72.395-72.394 0-21.188-9.273-41.257-25.442-55.061z"/></g></g></svg>