<svg height="464pt" viewBox="-5 0 464 464.00859" width="464pt" xmlns="http://www.w3.org/2000/svg"><path d="m397.90625 327.527344v136.480468h-224v-72c0-4.417968-3.582031-8-8-8h-64c-26.511719 0-48-21.488281-48-48v-56h-45.921875c-3.15625-.007812-6.015625-1.871093-7.292969-4.757812-1.28125-2.886719-.7421872-6.257812 1.375-8.601562l67.839844-74.640626c-.003906-86.859374 58.304688-162.902343 142.191406-185.433593 83.886719-22.535157 172.453125 14.058593 215.972656 89.230469 43.515626 75.171874 31.148438 170.199218-30.164062 231.722656zm0 0" fill="#ffc477"/><path d="m341.90625 152.007812 8 8v32l-16 8v24l-8 8h-16l-16 24h-16l-16-16v-128l16-16h24l8 8v16l32 8zm0 0" fill="#ed539d"/><path d="m293.90625 288.007812v32c0 17.675782-14.328125 32-32 32-17.675781 0-32-14.324218-32-32v-32zm0 0" fill="#787680"/><path d="m213.90625 120.007812v-16l8-8h24l16 16v128l-16 16h-16l-16-24h-16l-8-8v-24l-16-8v-32l8-8v-24zm0 0" fill="#ea348b"/><g fill="#ff9811"><path d="m253.90625 32.007812h16v32h-16zm0 0"/><path d="m182.980469 55.304688 13.855469-8 16.003906 27.710937-13.859375 8zm0 0"/><path d="m133.191406 110.941406 8-13.859375 27.722656 16.003907-8 13.855468zm0 0"/><path d="m117.90625 168.007812h32v16h-32zm0 0"/><path d="m133.191406 241.082031 27.722656-16 8 13.855469-27.722656 16.003906zm0 0"/><path d="m354.902344 238.945312 7.996094-13.859374 27.722656 16.003906-8 13.855468zm0 0"/><path d="m373.90625 168.007812h32v16h-32zm0 0"/><path d="m354.894531 113.078125 27.71875-16 8 13.855469-27.722656 16.003906zm0 0"/><path d="m310.972656 75.015625 15.996094-27.714844 13.859375 8-16 27.710938zm0 0"/></g><path d="m291.5625 221.664062-11.3125-11.3125 5.65625-5.65625v-20.6875h16v24c0 2.121094-.84375 4.15625-2.34375 5.65625zm0 0" fill="#e4187a"/><path d="m322.59375 200.007812-10.34375-10.34375c-1.5-1.5-2.34375-3.535156-2.34375-5.65625v-8h16v4.6875l8 8c3.121094 3.125 3.121094 8.1875 0 11.3125-3.125 3.125-8.1875 3.125-11.3125 0zm0 0" fill="#e4187a"/><path d="m301.90625 152.007812h-16v-16c0-2.121093.84375-4.15625 2.34375-5.65625l10.34375-10.34375c3.125-3.121093 8.1875-3.121093 11.3125 0 3.121094 3.125 3.121094 8.1875 0 11.3125l-8 8zm0 0" fill="#e4187a"/><path d="m325.90625 144.007812h16v16h-16zm0 0" fill="#e4187a"/><path d="m232.25 221.664062-8-8c-1.5-1.5-2.34375-3.535156-2.34375-5.65625v-24h16v20.6875l5.65625 5.65625zm0 0" fill="#c61469"/><path d="m189.90625 200.007812c-3.125-3.125-3.125-8.1875 0-11.3125l8-8v-4.6875h16v8c0 2.121094-.84375 4.15625-2.34375 5.65625l-10.34375 10.34375c-3.125 3.125-8.1875 3.125-11.3125 0zm0 0" fill="#c61469"/><path d="m237.90625 152.007812h-16v-12.6875l-8-8c-3.125-3.125-3.125-8.1875 0-11.3125 3.125-3.121093 8.1875-3.121093 11.3125 0l10.34375 10.34375c1.5 1.5 2.34375 3.535157 2.34375 5.65625zm0 0" fill="#c61469"/><path d="m181.90625 144.007812h16v16h-16zm0 0" fill="#c61469"/><path d="m205.90625 280.007812h112v16h-112zm0 0" fill="#57565c"/></svg>