<svg id="Capa_1" enable-background="new 0 0 512 512" height="512" viewBox="0 0 512 512" width="512" xmlns="http://www.w3.org/2000/svg"><g><path d="m386.884 155.263-5.112-17.036-15.923 7.91c-14.209 7.046-29.839 6.094-42.305-1.157l-57.48 90.557 72.539 27.246c31.831-14.649 52.397-46.759 52.397-81.783 0-8.188-1.304-16.362-4.116-25.737z" fill="#ff9100"/><path d="m188.456 144.979c-12.495 7.251-28.11 8.188-42.305 1.157l-15.923-7.91-5.112 17.036c-2.812 9.376-4.116 17.55-4.116 25.738 0 35.024 20.566 67.134 52.397 81.782l72.539-27.246z" fill="#ffb64c"/><path d="m184.6 229.9 61.883 63.602-3.683 52.498h-151.8v-69.3z" fill="#283366"/><path d="m421 276.7v69.3h-151.8l.612-61.067 57.588-55.033z" fill="#17204d"/><path d="m280.474 241h-24.474-26.684l-24.113 30 37.597 75h13.2 13.2l37.597-75z" fill="#edf5ff"/><path d="m306.797 271-26.323-30h-24.474v105h13.2z" fill="#d5e8fe"/><path d="m301 216.7v-35.7h-45-45v35.7l-26.4 13.2 20.603 41.1h50.797 50.797l20.603-41.1z" fill="#ffccb3"/><path d="m327.4 229.9-26.4-13.2v-35.7h-45v90h50.797z" fill="#fb9"/><g><path d="m61 346h-30v-120c0-24.814 20.186-45 45-45h15v30h-15c-8.276 0-15 6.724-15 15z" fill="#d5e8fe"/></g><g><path d="m481 346h-30v-120c0-8.276-6.724-15-15-15h-15v-30h15c24.814 0 45 20.186 45 45z" fill="#b5dbff"/></g><path d="m327.7 53.8-71.7 25.512-75 26.688v60c0 24.901 20.099 45 45 45h30 30c24.901 0 45-20.099 45-45v-90c0-7.8-1.199-15.3-3.3-22.2z" fill="#fdc"/><path d="m331 166v-90c0-7.8-1.199-15.3-3.3-22.2l-71.7 25.512v131.688h30c24.901 0 45-20.099 45-45z" fill="#ffccb3"/><path d="m256 331h-256l31 120h225 225l31-120z" fill="#804231"/><path d="m512 331h-256v120h225z" fill="#582b1f"/><path d="m256 391h-165v121h165 165v-121z" fill="#99503d"/><path d="m256 391h165v121h-165z" fill="#804231"/><path d="m256 0c-41.4 0-75 34.6-75 76v30h75c31.34 0 60.941-19.924 71.7-52.2-.074-.1-15.882-53.8-71.7-53.8z" fill="#ffb64c"/><path d="m327.7 53.8c-.074-.1-15.882-53.8-71.7-53.8v106c31.34 0 60.941-19.924 71.7-52.2z" fill="#ff9100"/></g></svg>