<svg height="512" viewBox="0 0 512 512" width="512" xmlns="http://www.w3.org/2000/svg"><path d="m384 296h32a0 0 0 0 1 0 0v64a16 16 0 0 1 -16 16 16 16 0 0 1 -16-16v-64a0 0 0 0 1 0 0z" fill="#55525b"/><path d="m416 296v64a16 16 0 0 1 -16 16v-80z" fill="#353744"/><path d="m80 320h176a48 48 0 0 1 48 48v128a0 0 0 0 1 0 0h-272a0 0 0 0 1 0 0v-128a48 48 0 0 1 48-48z" fill="#aac3d7"/><path d="m80 320a48 48 0 0 1 48 48v128a0 0 0 0 1 0 0h-96a0 0 0 0 1 0 0v-128a48 48 0 0 1 48-48z" fill="#d7e6f0"/><path d="m192 16a112 112 0 0 0 -112 112v192h112v-32h64a48 48 0 0 0 48-48v-112a112 112 0 0 0 -112-112z" fill="#fab991"/><path d="m269.333 176h-18.666v16h34.666a8 8 0 0 1 -8-8 8 8 0 0 0 -8-8z" fill="#4b55a5"/><path d="m112 288h80a0 0 0 0 1 0 0v32a0 0 0 0 1 0 0h-112a0 0 0 0 1 0 0 32 32 0 0 1 32-32z" fill="#f0915a"/><path d="m264 16h-88a112 112 0 0 0 -112 112v112a32 32 0 0 0 32 32h32a32 32 0 0 0 32-32v-56a8 8 0 0 0 8 8h24v-32a32 32 0 0 1 32-32h80a16 16 0 0 0 16-16v-40a56 56 0 0 0 -56-56z" fill="#353744"/><path d="m160 160v80a40 40 0 0 1 0-80z" fill="#f0915a"/><path d="m144 320a48 48 0 0 1 48 48v8a24 24 0 0 0 24 24 24 24 0 0 0 24-24v-8a48 48 0 0 0 -48-48z" fill="#6478b9"/><path d="m248 240h32a0 0 0 0 1 0 0 16 16 0 0 1 -16 16 16 16 0 0 1 -16-16 0 0 0 0 1 0 0z" fill="#353744"/><path d="m475.313 388.686a16 16 0 0 0 -22.627 0l-38.627 38.627a15.9 15.9 0 0 1 -11.314 4.687h-42.745a8 8 0 0 0 -8 8v40h32a16 16 0 0 1 16-16h2.745a47.69 47.69 0 0 0 33.941-14.059l38.627-38.627a16 16 0 0 0 0-22.628z" fill="#f0915a"/><path d="m388 392h-36a32 32 0 0 0 -32 32v56h32v-40a8 8 0 0 1 8-8h28a20 20 0 0 0 20-20 20 20 0 0 0 -20-20z" fill="#fab991"/><path d="m320 480h64a8 8 0 0 1 8 8v8a0 0 0 0 1 0 0h-80a0 0 0 0 1 0 0v-8a8 8 0 0 1 8-8z" fill="#aac3d7"/><path d="m250.667 173.333a32 32 0 0 1 32 32v2.667a16 16 0 0 1 -16 16 16 16 0 0 1 -16-16v-34.667a0 0 0 0 1 0 0z" fill="#f0915a"/><path d="m168 192h74.667a8 8 0 0 0 8-8 8 8 0 0 1 8-8h10.666a8 8 0 0 1 8 8 8 8 0 0 0 8 8h26.667a8 8 0 0 0 8-8v-48a8 8 0 0 0 -8-8h-144a8 8 0 0 0 -8 8v48a8 8 0 0 0 8 8z" fill="#6ea5d7"/><path d="m304 128h-104a8 8 0 0 0 -8 8v48a8 8 0 0 0 8 8h42.667a8 8 0 0 0 8-8 8 8 0 0 1 8-8h10.667a8 8 0 0 1 8 8 8 8 0 0 0 8 8h18.666z" fill="#6478b9"/><circle cx="226.667" cy="160" fill="#4b55a5" r="10.667"/><circle cx="274.667" cy="160" fill="#4b55a5" r="10.667"/><rect fill="#55525b" height="24" rx="8" width="120" x="56" y="136"/><circle cx="400" cy="248" fill="#d7e6f0" r="56"/><path d="m400 312a64 64 0 1 1 64-64 64.072 64.072 0 0 1 -64 64zm0-112a48 48 0 1 0 48 48 48.054 48.054 0 0 0 -48-48z" fill="#55525b"/><circle cx="384" cy="232" fill="#fff" r="16"/></svg>