<svg height="512pt" viewBox="0 0 512 512" width="512pt" xmlns="http://www.w3.org/2000/svg"><path d="m379.621094 248.273438h-104.96875l74.226562-74.222657-10.929687-10.929687-74.222657 74.226562-15.453124 37.304688v104.96875h15.453124v-104.96875l74.222657 74.226562 10.929687-10.929687-74.226562-74.222657h104.96875zm0 0" fill="#ff451b"/><path d="m248.273438 132.378906v104.96875l-74.222657-74.226562-10.929687 10.929687 74.226562 74.222657h-104.96875v15.453124h104.96875l-74.226562 74.222657 10.929687 10.929687 74.222657-74.226562 15.453124-37.304688v-104.96875zm0 0" fill="#ff852b"/><path d="m256 0c-12.800781 0-23.179688 10.378906-23.179688 23.179688 0 .949218.066407 1.886718.175782 2.808593l7.550781 60.738281 15.453125 14.746094 15.453125-14.746094 7.550781-60.738281c.109375-.921875.175782-1.859375.175782-2.808593 0-12.800782-10.378907-23.179688-23.179688-23.179688zm0 0" fill="#ff6523"/><path d="m74.980469 74.980469c-9.050781 9.050781-9.050781 23.726562 0 32.78125.671875.671875 1.378906 1.289062 2.109375 1.859375l48.289062 37.613281 21.355469-.5.5-21.355469-37.613281-48.289062c-.570313-.730469-1.1875-1.4375-1.859375-2.109375-9.054688-9.050781-23.730469-9.050781-32.78125 0zm0 0" fill="#ff6523"/><path d="m0 256c0 12.800781 10.378906 23.179688 23.179688 23.179688.949218 0 1.886718-.066407 2.808593-.175782l60.738281-7.550781 14.746094-15.453125-14.746094-15.453125-60.738281-7.550781c-.921875-.109375-1.859375-.175782-2.808593-.175782-12.800782 0-23.179688 10.378907-23.179688 23.179688zm0 0" fill="#ff6523"/><path d="m74.980469 437.019531c9.050781 9.050781 23.726562 9.050781 32.78125 0 .671875-.671875 1.289062-1.378906 1.859375-2.109375l37.613281-48.289062-.5-21.355469-21.355469-.5-48.289062 37.613281c-.730469.570313-1.4375 1.1875-2.109375 1.859375-9.050781 9.054688-9.050781 23.730469 0 32.78125zm0 0" fill="#ff6523"/><g fill="#ff451b"><path d="m256 512c12.800781 0 23.179688-10.378906 23.179688-23.179688 0-.949218-.066407-1.886718-.175782-2.808593l-7.550781-60.738281-15.453125-14.746094-15.453125 14.746094-7.550781 60.738281c-.109375.921875-.175782 1.859375-.175782 2.808593 0 12.800782 10.378907 23.179688 23.179688 23.179688zm0 0"/><path d="m437.019531 437.019531c9.050781-9.050781 9.050781-23.726562 0-32.78125-.671875-.671875-1.378906-1.289062-2.109375-1.859375l-48.289062-37.613281-21.355469.5-.5 21.355469 37.613281 48.289062c.570313.730469 1.1875 1.4375 1.859375 2.109375 9.054688 9.050781 23.730469 9.050781 32.78125 0zm0 0"/><path d="m512 256c0-12.800781-10.378906-23.179688-23.179688-23.179688-.949218 0-1.886718.066407-2.808593.175782l-60.738281 7.550781-14.746094 15.453125 14.746094 15.453125 60.738281 7.550781c.921875.109375 1.859375.175782 2.808593.175782 12.800782 0 23.179688-10.378907 23.179688-23.179688zm0 0"/><path d="m437.019531 74.980469c-9.050781-9.050781-23.726562-9.050781-32.78125 0-.671875.671875-1.289062 1.378906-1.859375 2.109375l-37.613281 48.289062.5 21.355469 21.355469.5 48.289062-37.613281c.730469-.570313 1.4375-1.1875 2.109375-1.859375 9.050781-9.054688 9.050781-23.730469 0-32.78125zm0 0"/></g><path d="m257.792969 86.03125c92.902343.96875 168.1875 76.839844 168.1875 169.96875s-75.285157 169-168.1875 169.96875c75.863281-1.183594 121.828125-169.96875 121.828125-169.96875s-45.964844-168.785156-121.828125-169.96875zm0 0" fill="#ff6523"/><path d="m257.792969 86.03125c75.863281 1.183594 137.28125 76.972656 137.28125 169.96875s-61.417969 168.785156-137.28125 169.96875c-.597657.011719-1.195313.011719-1.792969.011719-93.726562 0-169.980469-76.253907-169.980469-169.980469s76.253907-169.980469 169.980469-169.980469c.597656 0 1.195312 0 1.792969.011719zm121.828125 169.96875c0-68.167969-55.453125-123.621094-123.621094-123.621094s-123.621094 55.453125-123.621094 123.621094 55.453125 123.621094 123.621094 123.621094 123.621094-55.453125 123.621094-123.621094zm0 0" fill="#ff852b"/><path d="m256 209.640625v92.71875c25.5625 0 46.359375-20.796875 46.359375-46.359375s-20.796875-46.359375-46.359375-46.359375zm0 0" fill="#ffd87c"/><path d="m271.453125 256c0-25.5625-6.933594-46.359375-15.453125-46.359375-25.5625 0-46.359375 20.796875-46.359375 46.359375s20.796875 46.359375 46.359375 46.359375c8.519531 0 15.453125-20.796875 15.453125-46.359375zm0 0" fill="#ffebbe"/><path d="m271.453125 256c0 8.535156-6.917969 15.453125-15.453125 15.453125s-15.453125-6.917969-15.453125-15.453125 6.917969-15.453125 15.453125-15.453125 15.453125 6.917969 15.453125 15.453125zm0 0" fill="#ff6523"/><path d="m256 116.925781c-76.6875 0-139.074219 62.386719-139.074219 139.074219s62.386719 139.074219 139.074219 139.074219 139.074219-62.386719 139.074219-139.074219-62.386719-139.074219-139.074219-139.074219zm0 247.242188c-59.644531 0-108.167969-48.523438-108.167969-108.167969s48.523438-108.167969 108.167969-108.167969 108.167969 48.523438 108.167969 108.167969-48.523438 108.167969-108.167969 108.167969zm0 0" fill="#ffd87c"/></svg>