<svg id="Layer_1" enable-background="new 0 0 511.5 511.5" height="512" viewBox="0 0 511.5 511.5" width="512" xmlns="http://www.w3.org/2000/svg"><g><g><g><path d="m409.75 255.75c0-20.678 16.822-37.5 37.5-37.5h26.75c20.678 0 37.5 16.822 37.5 37.5s-16.822 37.5-37.5 37.5h-26.75c-20.678 0-37.5-16.822-37.5-37.5z" fill="#ff8856"/></g></g><g><g><path d="m0 255.75c0-20.678 16.822-37.5 37.5-37.5h39.75c20.677 0 37.5 16.822 37.5 37.5s-16.822 37.5-37.5 37.5h-39.75c-20.678 0-37.5-16.822-37.5-37.5z" fill="#fdbf00"/></g></g><g><g><path d="m362.625 362.625c14.621-14.621 38.412-14.621 53.033 0l20.935 20.935c14.621 14.621 14.621 38.412 0 53.033s-38.412 14.621-53.033 0l-20.935-20.935c-14.621-14.621-14.621-38.412 0-53.033z" fill="#ff8856"/></g></g><g><g><path d="m361.875 149.625c-14.621-14.621-14.621-38.412 0-53.033l21.685-21.685c14.621-14.621 38.412-14.621 53.033 0s14.621 38.412 0 53.033l-21.685 21.685c-14.621 14.621-38.412 14.621-53.033 0z" fill="#ff8856"/></g></g><g><g><path d="m74.907 436.593c-14.621-14.621-14.621-38.412 0-53.033l27.935-27.935c14.621-14.621 38.411-14.621 53.033 0s14.621 38.412 0 53.033l-27.935 27.935c-14.621 14.621-38.411 14.621-53.033 0z" fill="#fdbf00"/></g></g><g><path d="m74.907 74.907c14.621-14.621 38.412-14.621 53.033 0l29.185 29.185c14.621 14.621 14.621 38.411 0 53.033s-38.412 14.621-53.033 0l-29.185-29.185c-14.621-14.621-14.621-38.411 0-53.033z" fill="#fdbf00"/></g><g><g><path d="m255.75 121.5c-20.678 0-37.5-16.822-37.5-37.5v-46.5c0-20.678 16.822-37.5 37.5-37.5s37.5 16.822 37.5 37.5v46.5c0 20.678-16.822 37.5-37.5 37.5z" fill="#fdbf00"/></g></g><path d="m255.75 0v121.5c20.678 0 37.5-16.822 37.5-37.5v-46.5c0-20.678-16.822-37.5-37.5-37.5z" fill="#ff8856"/><g><g><path d="m255.75 511.5c-20.678 0-37.5-16.822-37.5-37.5v-42c0-20.677 16.822-37.5 37.5-37.5s37.5 16.822 37.5 37.5v42c0 20.678-16.822 37.5-37.5 37.5z" fill="#fdbf00"/></g></g><path d="m255.75 394.5v117c20.678 0 37.5-16.822 37.5-37.5v-42c0-20.678-16.822-37.5-37.5-37.5z" fill="#ff8856"/><g><path d="m255.75 220c-8.284 0-15-6.716-15-15v-90.5c0-8.284 6.716-15 15-15s15 6.716 15 15v90.5c0 8.284-6.716 15-15 15z" fill="#007a9f"/></g><g><path d="m399.75 270.5h-91.75c-8.284 0-15-6.716-15-15s6.716-15 15-15h91.75c8.284 0 15 6.716 15 15s-6.716 15-15 15z" fill="#00607f"/></g><g><path d="m255.75 410.5c-8.284 0-15-6.716-15-15v-91.25c0-8.284 6.716-15 15-15s15 6.716 15 15v91.25c0 8.284-6.716 15-15 15z" fill="#007a9f"/></g><path d="m255.75 289.25v121.25c8.284 0 15-6.716 15-15v-91.25c0-8.285-6.716-15-15-15z" fill="#00607f"/><g><path d="m203.684 270.5h-82.934c-8.284 0-15-6.716-15-15s6.716-15 15-15h82.934c8.284 0 15 6.716 15 15s-6.716 15-15 15z" fill="#007a9f"/></g><g><path d="m288.702 237.548c-3.839 0-7.678-1.464-10.606-4.394-5.858-5.858-5.858-15.355 0-21.213l76.548-76.548c5.857-5.858 15.355-5.858 21.213 0s5.858 15.355 0 21.213l-76.548 76.548c-2.929 2.929-6.768 4.394-10.607 4.394z" fill="#00607f"/></g><g><path d="m352.34 367.09c-3.839 0-7.678-1.464-10.606-4.394l-57.484-57.484c-5.858-5.858-5.858-15.355 0-21.213 5.857-5.858 15.355-5.858 21.213 0l57.484 57.484c5.858 5.858 5.858 15.355 0 21.213-2.929 2.93-6.768 4.394-10.607 4.394z" fill="#00607f"/></g><g><path d="m152.75 373.5c-3.839 0-7.678-1.464-10.606-4.394-5.858-5.858-5.858-15.355 0-21.213l67.298-67.298c5.857-5.858 15.355-5.858 21.213 0s5.858 15.355 0 21.213l-67.298 67.298c-2.929 2.93-6.768 4.394-10.607 4.394z" fill="#007a9f"/></g><g><path d="m218.673 233.423c-3.839 0-7.678-1.464-10.606-4.394l-66.423-66.423c-5.858-5.858-5.858-15.355 0-21.213 5.857-5.858 15.355-5.858 21.213 0l66.423 66.423c5.858 5.858 5.858 15.355 0 21.213-2.929 2.929-6.768 4.394-10.607 4.394z" fill="#007a9f"/></g><path d="m255.75 99.5v120.5c8.284 0 15-6.716 15-15v-90.5c0-8.284-6.716-15-15-15z" fill="#00607f"/><g><path d="m255.75 61.5c-106.972 0-194 87.028-194 194s87.028 194 194 194 194-87.028 194-194-87.028-194-194-194zm0 327.146c-73.417 0-133.146-59.729-133.146-133.146s59.729-133.147 133.146-133.147 133.146 59.73 133.146 133.147-59.729 133.146-133.146 133.146z" fill="#ffde46"/></g><g><g><path d="m255.75 315.5c-33.084 0-60-26.916-60-60s26.916-60 60-60 60 26.916 60 60-26.916 60-60 60z" fill="#fdbf00"/></g></g><path d="m255.75 61.5v60.853c73.417 0 133.146 59.729 133.146 133.147 0 73.417-59.729 133.146-133.146 133.146v60.854c106.972 0 194-87.028 194-194s-87.028-194-194-194z" fill="#ffcd00"/><path d="m255.75 195.5v120c33.084 0 60-26.916 60-60s-26.916-60-60-60z" fill="#ff8856"/></g></svg>