<?xml version="1.0" encoding="iso-8859-1"?>
<!-- Generator: Adobe Illustrator 19.0.0, SVG Export Plug-In . SVG Version: 6.00 Build 0)  -->
<svg version="1.1" id="Capa_1" xmlns="http://www.w3.org/2000/svg" xmlns:xlink="http://www.w3.org/1999/xlink" x="0px" y="0px"
	 viewBox="0 0 512 512" style="enable-background:new 0 0 512 512;" xml:space="preserve">
<path style="fill:#FFF573;" d="M511.193,256.807C511.193,396.851,397.874,512,256,512C114.494,512,0.807,397.198,0.807,256.807
	C0.807,115.868,115.061,1.614,256,1.614C397.202,1.614,511.193,116.109,511.193,256.807z"/>
<g>
	<path style="fill:#78BEFF;" d="M190.013,131.971H58.042V10.866C58.042,4.865,62.908,0,68.909,0h121.104V131.971z"/>
	<path style="fill:#78BEFF;" d="M453.953,131.971H321.982V0h121.104c6.001,0,10.866,4.865,10.866,10.866v121.105H453.953z"/>
</g>
<rect x="190.017" style="fill:#ABDCFF;" width="131.971" height="131.971"/>
<path style="fill:#64AFFF;" d="M190.013,395.911H68.909c-6.001,0-10.866-4.865-10.866-10.866V263.94h131.971v131.971H190.013z"/>
<path style="fill:#78BEFF;" d="M443.087,395.911H321.983V263.94h131.971v121.104C453.953,391.046,449.088,395.911,443.087,395.911z"
	/>
<rect x="190.017" y="263.941" style="fill:#ABDCFF;" width="131.971" height="131.971"/>
<rect x="190.017" y="131.971" style="fill:#78BEFF;" width="131.971" height="131.971"/>
<g>
	<rect x="58.046" y="131.971" style="fill:#ABDCFF;" width="131.971" height="131.971"/>
	<rect x="321.987" y="131.971" style="fill:#ABDCFF;" width="131.971" height="131.971"/>
</g>
<g>
	<path style="fill:#5A5A5A;" d="M267.467,209.617v-2.131c0-7.513-4.598-8.971-10.766-8.971c-3.813,0-5.046-3.364-5.046-6.729
		s1.234-6.729,5.046-6.729c4.262,0,8.747-0.561,8.747-9.644c0-6.504-3.701-8.074-8.299-8.074c-5.495,0-8.299,1.345-8.299,5.719
		c0,3.813-1.682,6.392-8.186,6.392c-8.074,0-9.083-1.682-9.083-7.065c0-8.747,6.28-20.074,25.569-20.074
		c14.242,0,25.008,5.159,25.008,20.298c0,8.186-3.028,15.812-8.635,18.391c6.616,2.467,11.439,7.401,11.439,16.485v2.131
		c0,18.391-12.672,25.344-28.372,25.344c-19.288,0-26.69-11.775-26.69-21.194c0-5.046,2.131-6.392,8.299-6.392
		c7.177,0,8.971,1.57,8.971,5.832c0,5.271,4.934,6.504,9.98,6.504C264.776,219.71,267.467,216.906,267.467,209.617z"/>
	<path style="fill:#5A5A5A;" d="M253.026,41.107c-2.764,1.529-3.925,2.915-6.056,2.915c-3.253,0-5.495-3.476-5.495-6.952
		c0-2.355,1.009-4.598,3.253-5.943c15.078-8.745,14.624-9.757,18.055-9.757c3.589,0,7.738,2.131,7.738,5.495v71.323
		c0,3.589-4.373,5.382-8.747,5.382c-4.373,0-8.747-1.794-8.747-5.382v-57.08H253.026z"/>
</g>
<g>
	<path style="fill:#64AFFF;" d="M138.446,131.965H58.048V10.87C58.048,4.86,62.909,0,68.904,0h61.984
		c-3.311,16.624-5.047,33.822-5.047,51.435C125.84,79.529,130.26,106.595,138.446,131.965z"/>
	<path style="fill:#64AFFF;" d="M453.958,305.192v79.849c0,6.008-4.874,10.869-10.869,10.869h-121.11v-90.719
		C364.657,316.246,410.422,316.468,453.958,305.192z"/>
</g>
<path style="fill:#91CDFF;" d="M321.979,305.192v90.719H190.014V263.944h44.464C260.463,282.759,290.04,296.899,321.979,305.192z"/>
<path style="fill:#78BEFF;" d="M234.479,263.944h-44.464v-40.673C203.22,238.467,218.134,252.127,234.479,263.944z"/>
<path style="fill:#91CDFF;" d="M190.014,223.273v40.673H58.048v-131.98h80.397C149.408,165.962,167.127,196.927,190.014,223.273z"/>
<path style="fill:#5A5A5A;" d="M380.678,320.708c0.114-1.536-0.416,5.564,1.122-15.022h24.556c3.365,0,5.047-3.819,5.047-7.625
	c0-3.819-1.682-7.625-5.047-7.625h-35.772c-1.909,0-2.804,2.016-3.138,5.381l-1.802,16.798c0.055,9.782-5.688,21.552,5.274,21.552
	h17.051c11.727,0,9.767,12.41,9.975,13.126c0,7.277-3.806,10.535-10.202,10.535c-5.487,0-9.761-2.35-9.761-6.837
	c0-3.592-1.122-6.503-8.746-6.503c-5.488,0-8.746,1.682-8.746,7.732c0,10.536,9.654,20.857,27.707,20.857
	c15.022,0,27.253-7.064,27.253-25.784v-2.136C415.449,315.723,383.522,321.239,380.678,320.708z"/>
<path style="fill:#464646;" d="M415.449,345.156c-0.363,0.829,3.652,27.921-27.253,27.921c-18.053,0-27.707-10.322-27.707-20.857
	c0-6.049,3.258-7.732,8.746-7.732c7.625,0,8.746,2.911,8.746,6.503c0,4.487,4.273,6.837,9.761,6.837
	c6.396,0,10.202-3.258,10.202-10.535c-0.203-0.699,1.8-13.126-9.975-13.126h-17.051c-10.952,0-5.22-11.716-5.274-21.552
	c5.154,0.454,10.335,0.734,15.57,0.855l-0.535,7.237C384.069,321.341,415.449,315.863,415.449,345.156z"/>
<path style="fill:#D29650;" d="M389.019,472.312H171.632l-36.159-19.825l-12.856-7.043c-2.728-1.5-2.728-5.42,0-6.92l12.856-7.043
	l36.159-19.825h217.387c3.257,0,5.888,2.63,5.888,5.888v48.879C394.906,469.682,392.277,472.312,389.019,472.312z"/>
<rect x="171.627" y="411.665" style="fill:#4BB9E1;" width="188.084" height="60.645"/>
<rect x="171.627" y="430.916" style="fill:#4191BE;" width="188.084" height="22.139"/>
<path style="fill:#464646;" d="M135.473,452.488l-12.856-7.043c-2.728-1.5-2.728-5.42,0-6.92l12.856-7.043V452.488z"/>
<path style="fill:#FF6E73;" d="M389.019,472.312h-21.967v-60.653h21.967c3.257,0,5.888,2.63,5.888,5.888v48.879
	C394.906,469.682,392.277,472.312,389.019,472.312z"/>
<path style="fill:#46A5CD;" d="M237.853,472.312h-66.222v-60.653h99.075c-5.715,5.899-10.865,12.352-15.364,19.259
	c-4.523,6.944-8.382,14.343-11.492,22.135C241.356,459.247,239.34,465.676,237.853,472.312z"/>
<path style="fill:#3282AF;" d="M243.851,453.053h-72.219v-22.135h83.711C250.82,437.862,246.961,445.261,243.851,453.053z"/>
<path style="fill:#FF5A5F;" d="M367.051,441.648v-29.989h21.963c3.257,0,5.888,2.63,5.888,5.888v12.782
	c-0.344-0.013-0.676-0.013-1.02-0.013C383.361,430.316,373.848,434.654,367.051,441.648z"/>
<rect x="352.507" y="411.655" style="fill:#E3A600;" width="14.548" height="60.65"/>
<rect x="352.496" y="411.655" style="fill:#D49B00;" width="14.552" height="22.737"/>
<g>
</g>
<g>
</g>
<g>
</g>
<g>
</g>
<g>
</g>
<g>
</g>
<g>
</g>
<g>
</g>
<g>
</g>
<g>
</g>
<g>
</g>
<g>
</g>
<g>
</g>
<g>
</g>
<g>
</g>
</svg>
