<?xml version="1.0"?>
<svg xmlns="http://www.w3.org/2000/svg" xmlns:xlink="http://www.w3.org/1999/xlink" xmlns:svgjs="http://svgjs.com/svgjs" version="1.1" width="512" height="512" x="0" y="0" viewBox="0 0 512 512" style="enable-background:new 0 0 512 512" xml:space="preserve"><g><g xmlns="http://www.w3.org/2000/svg"><path d="m256 21.996c-135.311 0-245.002 109.691-245.002 245.002 0 60.377 21.853 115.641 58.064 158.347l72.499 58.32c34.159 18.081 73.099 28.335 114.439 28.335 135.311 0 245.002-109.691 245.002-245.002s-109.691-245.002-245.002-245.002z" fill="#ffc839" data-original="#ffc839" style=""/><path d="m456.461 59.388-67.662-54.051c-9.71-7.757-23.698-6.977-32.486 1.811-4.493 4.493-4.493 11.777 0 16.27l65.55 65.55c6.053 6.053 7.127 15.482 2.59 22.74-87.095 139.353-206.966 207.524-210.369 210.25-7.268 4.62-16.77 3.575-22.859-2.515l-61.307-61.307c-6.791-6.791-17.802-6.791-24.593 0s-6.791 17.802 0 24.593l29.768 29.769c22.864 22.865 16.266 61.609-13.003 75.352-.722.339-1.453.673-2.194 1.002-19.39 8.608-36.48 21.167-50.836 36.494 20.148 23.762 44.74 43.628 72.499 58.321 3.34-4.306 6.691-8.722 10.047-13.247 69.616-93.886 278.064-157.021 326.418-346.277 6.126-23.969-2.235-49.314-21.563-64.755z" fill="#ff4155" data-original="#ff4155" style=""/><path d="m350.98 303.762c-11.789-2.228-16.464-13.083-18.303-20.633-.977-4.011-4.373-6.919-8.482-7.316-12.626-1.219-17.15-10.641-18.764-16.828-.414-1.585-1.247-2.982-2.352-4.113-48.703 43.529-87.091 65.561-88.995 67.086-7.268 4.62-16.77 3.575-22.86-2.515l-61.307-61.307c-6.791-6.791-17.802-6.791-24.593 0s-6.791 17.802 0 24.592l29.769 29.769c22.865 22.865 16.267 61.609-13.003 75.352-.722.339-1.453.673-2.193 1.002-19.391 8.608-36.48 21.167-50.836 36.494 20.148 23.762 44.741 43.628 72.499 58.321 3.341-4.306 6.692-8.722 10.047-13.247 40.609-54.767 128.458-99.072 204.215-164.049-1.28-1.309-2.941-2.249-4.842-2.608z" fill="#e80054" data-original="#e80054" style=""/><g><path d="m235.369 343.242c6.325-4.794 128.254-61.764 210.384-210.235 4.201-7.594 1.832-18.319-5.714-25.864l-18.175-18.175c6.053 6.052 7.127 15.482 2.59 22.74-87.095 139.353-206.966 207.524-210.369 210.25-7.268 4.621-16.77 3.575-22.859-2.515l18.155 18.155c7.591 7.592 18.393 9.938 25.988 5.644z" fill="#ff7186" data-original="#ff7186" style=""/></g><path d="m324.196 275.813c-12.626-1.219-17.15-10.641-18.764-16.828-.414-1.585-1.247-2.981-2.352-4.113-48.703 43.529-87.091 65.561-88.995 67.086-7.268 4.621-16.77 3.575-22.86-2.515l18.155 18.155c7.592 7.592 18.394 9.938 25.989 5.644 3.582-2.715 44.249-22.177 93.763-65.508-1.401-1.059-3.096-1.744-4.936-1.921z" fill="#ff4155" data-original="#ff4155" style=""/><g><path d="m415.091 135.146c-2.274 0-4.55-.868-6.286-2.604l-85.87-85.87c-3.471-3.471-3.471-9.099 0-12.57 3.472-3.471 9.099-3.471 12.571 0l85.87 85.87c3.471 3.471 3.471 9.099 0 12.57-1.735 1.736-4.01 2.604-6.285 2.604z" fill="#ff7186" data-original="#ff7186" style=""/></g><g><path d="m393.131 166.323c-2.274 0-4.55-.868-6.286-2.604l-90.479-90.478c-3.471-3.471-3.471-9.099 0-12.57 3.472-3.471 9.099-3.471 12.571 0l90.479 90.478c3.471 3.471 3.471 9.099 0 12.57-1.735 1.736-4.01 2.604-6.285 2.604z" fill="#ff7186" data-original="#ff7186" style=""/></g><g><path d="m369.604 195.935c-2.276 0-4.55-.867-6.286-2.603l-93.521-93.521c-3.471-3.471-3.471-9.099 0-12.57 3.472-3.472 9.099-3.472 12.571 0l93.521 93.521c3.471 3.471 3.471 9.099 0 12.57-1.735 1.735-4.01 2.603-6.285 2.603z" fill="#ff7186" data-original="#ff7186" style=""/></g><g><path d="m344.552 224.02c-2.275 0-4.55-.867-6.286-2.603l-95.037-95.037c-3.471-3.471-3.471-9.099 0-12.57 3.473-3.472 9.101-3.471 12.571 0l95.037 95.037c3.471 3.471 3.471 9.099 0 12.57-1.736 1.735-4.011 2.603-6.285 2.603z" fill="#ff7186" data-original="#ff7186" style=""/></g><g><path d="m317.988 250.594c-2.274 0-4.55-.868-6.286-2.604l-95.042-95.042c-3.471-3.471-3.471-9.099 0-12.57 3.472-3.471 9.099-3.471 12.571 0l95.042 95.042c3.471 3.471 3.471 9.099 0 12.57-1.736 1.736-4.011 2.604-6.285 2.604z" fill="#ff7186" data-original="#ff7186" style=""/></g><g><path d="m289.905 275.649c-2.274 0-4.55-.868-6.286-2.603l-93.529-93.529c-3.471-3.471-3.471-9.099 0-12.57 3.472-3.471 9.099-3.471 12.571 0l93.529 93.529c3.471 3.471 3.471 9.099 0 12.57-1.735 1.735-4.011 2.603-6.285 2.603z" fill="#ff4155" data-original="#ff4155" style=""/></g><g><path d="m260.295 299.177c-2.274 0-4.549-.868-6.286-2.604l-90.487-90.487c-3.471-3.471-3.471-9.099 0-12.57 3.472-3.471 9.099-3.471 12.571 0l90.487 90.487c3.471 3.471 3.471 9.099 0 12.57-1.735 1.736-4.011 2.604-6.285 2.604z" fill="#ff4155" data-original="#ff4155" style=""/></g><g><path d="m229.127 321.146c-2.274 0-4.55-.868-6.286-2.604l-85.887-85.888c-3.471-3.471-3.471-9.099 0-12.57 3.472-3.471 9.099-3.471 12.571 0l85.887 85.888c3.471 3.471 3.471 9.099 0 12.57-1.735 1.736-4.011 2.604-6.285 2.604z" fill="#ff4155" data-original="#ff4155" style=""/></g><g fill="#ffdd40"><path d="m10.998 266.998c0 32.275 6.254 63.087 17.595 91.306 30.487-11.466 58.283-50.858 40.469-98.883-21.244-57.269 93.148-139.827 135.242-181.921 20.273-20.273 21.016-38.992 16.341-52.955-118.556 17.138-209.647 119.15-209.647 242.453z" fill="#ffdd40" data-original="#ffdd40" style=""/><path d="m500.943 271.698c-21.648-2.717-58.847-.196-85.639 39.991-40 60-120.608 103.821-159.304 129.91-24.364 16.427-30.693 45.897-21.284 69.47 7.016.604 14.111.931 21.284.931 133.739 0 242.435-107.162 244.943-240.302z" fill="#ffdd40" data-original="#ffdd40" style=""/></g></g></g></svg>
