<svg id="Capa_1" enable-background="new 0 0 512 512" height="512" viewBox="0 0 512 512" width="512" xmlns="http://www.w3.org/2000/svg"><g><g><g><path d="m235.449 223.678c-1.14-2.23-2.39-4.4-3.75-6.74-3.05-5.28-6.21-10.73-7.74-16.72-1.29-4.93-.86-10.05-.44-15.05l.04-.4c.16-1.97.31-3.82.35-5.69.43-19.24-3.66-37.419-11.819-52.589-11.83-21.999-32.309-37.469-54.799-41.389-.66-.11-1.32-.22-1.99-.31-2.87-.41-5.79-.61-8.72-.61-20.659 0-40.739 10.23-51.158 26.049-.46.7-.91 1.42-1.35 2.16-5.64 9.48-8.99 21.4-10.22 36.339-.64 7.68-.71 15.73-.78 22.84v.12c-.02 1.85-.04 3.72-.06 5.6-.06 4.23-.17 8.52-.41 12.76-1.15 20.29-5.38 40.189-12.58 59.149-2.52 6.61-4.53 12.94-1.55 17.66 1.78 2.84 4.67 3.75 6.77 4.01.54.07 1.11.11 1.68.11 3.67 0 7.55-1.5 10.13-3.91 4.76-4.49 6.92-11.25 8.42-17.309.27-1.19.54-2.32.81-3.41.17-.68.77-1.16 1.47-1.16.12 0 .24.02.35.05.81.19 1.31 1 1.12 1.81-.26 1.12-.53 2.29-.82 3.51-.83 3.72-1.63 8.57-.49 12.97 1.12 4.28 5.04 8.72 9.66 8.72h.02c.37 0 .76-.03 1.13-.1 2.29-.39 4.54-1.89 6.7-4.47.22-.26.429-.53.65-.81 6.03-7.81 8.15-18.15 10.03-27.279.14-.7.76-1.21 1.47-1.21.04 0 .09.01.15.01.77.07 1.36.7 1.38 1.55.15 6.56.31 13.99 3.25 20.209 2.29 4.84 7.59 10.05 13.82 10.05.46 0 .93-.03 1.4-.09.71-.09 1.41-.25 2.07-.48 3.48-1.15 6.25-3.97 8.06-7.13.88-1.52 1.53-3.12 1.94-4.65 1.67-6.24.79-12.85-.08-19.32-.11-.83.45-1.58 1.27-1.7.08-.01.15-.02.23-.02.74 0 1.37.54 1.5 1.27 1.11 6.74 2.38 14.38 6.94 19.999 2.83 3.48 7.38 5.73 11.59 5.73 2.26 0 4.31-.66 5.93-1.92 2.28-1.78 3.89-4.69 5.05-9.18 1.75-6.82 1.99-14.08.74-21.03-.43-2.41-1.04-4.77-1.82-7.07-.26-.78.13-1.61.89-1.9.17-.07.36-.11.54-.11.61 0 1.15.36 1.41.96 1.44 3.34 2.95 6.84 4.71 10.25 3.03 5.88 6.789 11.47 12.179 15.39 3.08 2.23 6.92 3.67 10.82 4.1.8.09 1.6.13 2.4.13 1.21 0 2.4-.1 3.539-.3 2.92-.52 6.96-1.96 9.6-5.89 5.378-7.99.648-19.14-1.632-23.559zm-104.977-94.328c0-2.41 1.96-4.37 4.37-4.37.56 0 1.09.11 1.58.3 1.62.63 2.78 2.22 2.78 4.07 0 2.33-1.84 4.24-4.15 4.35-.07.01-.14.01-.21.01-2.41 0-4.37-1.96-4.37-4.36z" fill="#d36c63"/><path d="m449.386 269.628c2.562-.636 5.206-1.08 7.857-1.319l.113-.01.112-.023c8.031-1.661 16.758-4.369 26.677-8.278.623-.245 1.305-.5 2.033-.772l.918-.343c7.524-2.78 20.118-7.432 19.643-15.674-.149-2.756-1.839-5.354-4.304-6.62-2.132-1.096-4.667-1.208-7.303-1.231l-1.449-.003c-14.419 0-35.443 1.019-51.475 9.832-.21.116-.441.172-.769.172-.004 0-.844-.027-.844-.027l-.606.574c-2.729 2.582-6.242 3.975-9.343 5.203l-50.989 20.209.706 3.859c12.038.189 23.913 1.923 35.294 5.154 8.541 2.43 13.309 6.339 14.172 11.622.886 5.353-2.777 10.135-6.801 12.5-4.153 2.446-9.026 3.086-13.326 3.651l-32.059 4.22-.381 3.877c4.15 1.407 8.177 3.191 11.967 5.303 6.791 3.784 10.361 8.41 10.323 13.374-.051 5.46-4.5 9.605-8.888 11.291-3.522 1.356-7.223 1.53-10.055 1.53-1.306 0-2.587-.042-3.824-.082l-42.189-1.329 2.018 3.187c1.168 1.846 1.913 3.905 2.154 5.958.875 7.298-3.443 15.007-10.75 19.186-4.626 2.653-10.372 3.998-17.079 3.998-1.515 0-3.098-.069-4.706-.206-11.904-1.015-23.39-5.171-33.215-12.018l-2.854-1.989-.282 3.467c-.036.439-.101.878-.169 1.306-.99 5.815-4.711 11.135-9.71 13.883-3.803 2.086-8.307 3.143-13.387 3.143-4.523 0-9.578-.832-15.022-2.474-27.725-8.38-50.8-29.392-61.723-56.206-.314-.776.057-1.663.832-1.977.183-.074.372-.112.565-.112.619 0 1.172.372 1.406.944 10.585 25.98 32.938 46.335 59.794 54.449 5.184 1.564 9.942 2.356 14.142 2.356 4.569 0 8.587-.935 11.939-2.78 4.139-2.28 7.348-6.883 8.177-11.727.444-2.614.387-6.381-2.41-9.488-.243-.268-.333-.573-.365-.782l-.297-1.92-1.928.242c-.126.016-.247.038-.368.061l-.155.026c-.913.139-1.832.207-2.809.207-5.643 0-11.019-2.368-15.071-4.431-8.96-4.568-17.149-10.496-24.34-17.619l-.796-.788-1.089.267c-1.157.285-2.199.443-3.25.488-.182.014-.357.015-.532.015-.036 0-.073 0-.11 0-6.095 0-12.192-3.801-14.833-9.248-.176-.36-.2-.769-.068-1.151.132-.381.402-.686.766-.861.21-.102.433-.154.662-.154.586 0 1.109.327 1.361.843 2.143 4.442 7.108 7.544 12.077 7.544.199 0 .398-.005.589-.015 3.953-.185 7.934-2.193 10.924-5.511 2.121-2.359 3.808-5.5 4.878-9.084l.645-2.162-2.388-.408c-4.456-.824-8.059-4.512-8.567-8.77-.048-.4.063-.794.311-1.11.249-.317.607-.519 1.019-.567.064-.008.129-.012.192-.012.752 0 1.391.578 1.485 1.329.342 2.93 2.971 5.576 6.115 6.155.48.088.979.133 1.483.133 2.635 0 5.367-1.21 7.307-3.232 2.192-2.274 3.526-5.535 3.757-9.189.187-3.14-.427-6.614-1.827-10.33-.144-.375-.131-.785.034-1.152.165-.369.466-.652.849-.797.172-.065.35-.098.529-.098.626 0 1.196.395 1.418.977 1.559 4.121 2.236 8.02 2.015 11.588-.27 4.363-1.902 8.308-4.597 11.11-1.354 1.413-3.069 2.547-4.96 3.279l-1.011.392-.224 1.061c-1.081 5.136-3.229 9.601-6.207 12.911-1.064 1.179-2.292 2.25-3.648 3.183l-2.049 1.408 1.814 1.699c6.467 6.059 13.752 11.167 21.646 15.18 3.724 1.907 8.649 4.096 13.719 4.096.802 0 1.593-.056 2.351-.167 5.344-.78 10.418-4.55 13.921-10.343l.227-.374.05-.433c.02-.172.055-.312.078-.368.107-.219.246-.401.412-.54l.347-.336.239-.471c2.752-5.914 3.68-12.651 4.333-18.501l.306-2.736-2.696.555c-1.254.258-2.512.389-3.736.389-4.323 0-8.42-1.439-11.529-4.048-.641-.542-.727-1.498-.184-2.143.286-.344.708-.541 1.158-.541.25 0 .621.061.969.353 2.575 2.162 5.978 3.352 9.584 3.352 3.65 0 7.088-1.215 9.677-3.42 4.728-4.018 6.45-11.213 4.093-17.106l-.63-1.574-1.655.363c-1.01.221-2.027.333-3.022.333-3.432 0-6.842-1.275-9.361-3.504-.623-.546-.679-1.505-.135-2.127.291-.327.71-.515 1.147-.515.261 0 .644.065.991.372 1.971 1.748 4.661 2.75 7.382 2.75.956 0 1.893-.123 2.794-.367 3.477-.952 6.448-3.776 7.572-7.195 1.123-3.419.404-7.452-1.836-10.28-.518-.651-.406-1.607.25-2.129.34-.271.695-.327.934-.327.464 0 .896.209 1.188.578 2.901 3.645 3.799 8.664 2.343 13.103-.853 2.608-2.478 4.911-4.704 6.658l-1.208.949.604 1.411c3.065 7.161 1.053 15.958-4.796 20.926-.391.336-.834.672-1.396 1.057l-1.094.75.265 1.3c.036.175.045.305.031.438-.691 6.478-1.474 13.82-4.165 20.471l-.722 1.783 1.753.791c5.579 2.518 11.613 4.954 17.929 5.722 1.265.154 2.537.232 3.781.232 6.632 0 12.607-2.235 16.395-6.133 3.717-3.827 5.836-9.617 5.966-16.301.129-6.161-1.363-12.573-2.561-17.725l-.463-1.987-1.977.501c-1.279.324-2.574.489-3.849.489-3.346 0-6.571-1.061-9.077-2.982-.66-.511-.784-1.467-.279-2.125.29-.376.728-.592 1.202-.592.234 0 .586.055.925.314 1.951 1.501 4.514 2.328 7.216 2.328 3.066 0 6.011-1.076 8.08-2.953 4.073-3.706 5-10.509 2.07-15.158-.442-.709-.225-1.652.478-2.097.242-.152.518-.232.801-.232.524 0 1.003.265 1.282.713 3.738 5.941 2.596 14.294-2.61 19.022-.2.184-.409.343-.653.532l-1.387 1.076.888 1.515c.088.15.144.277.168.381.703 3.03 1.431 6.164 1.978 9.346l.172 1.002.911.452c2.012.997 4.349 1.524 6.761 1.524 5.111 0 9.999-2.322 12.755-6.057 3.548-4.801 4.321-11.923 2.069-19.049-1.903-6.04-5.508-11.392-9.346-16.796l-.877-1.234-1.427.509c-.672.24-1.321.434-1.935.576-.954.224-1.889.337-2.782.337-2.916 0-5.26-1.157-6.428-3.17-.202-.352-.257-.76-.153-1.151.104-.39.353-.715.701-.916.235-.136.49-.205.759-.205.548 0 1.038.282 1.327.782.847 1.41 2.764 1.621 3.833 1.62.679 0 1.371-.082 2.06-.243 3.999-.942 7.646-3.607 9.757-7.129 2.112-3.525 2.743-8 1.686-11.974-.104-.39-.05-.797.152-1.148.202-.35.526-.599.91-.702.132-.035.266-.052.398-.052.687 0 1.289.462 1.465 1.124 1.283 4.816.55 10.031-2.013 14.308-1.071 1.79-2.478 3.405-4.181 4.799l-1.441 1.181 1.076 1.521c3.469 4.902 7.338 10.666 9.355 17.047 1.69 5.357 1.843 10.944.429 15.731l-.872 2.952 57.386-7.559c4.195-.553 8.533-1.125 12.134-3.25 3.029-1.777 5.996-5.477 5.35-9.402-.668-4.026-4.71-7.12-12.017-9.197-11.833-3.353-24.144-5.054-36.59-5.054-6.616 0-13.245.492-19.694 1.459-.078.012-.155.017-.231.017-.685 0-1.289-.461-1.467-1.115-.198-.745.191-1.521.905-1.804l71.862-28.482c2.979-1.19 6.059-2.42 8.332-4.591 1.938-1.855 3.441-4.943 2.436-7.649-1.439-3.956-7.082-4.938-11.563-5.065-1.49-.042-2.976-.062-4.467-.062-22.242 0-44.542 4.442-66.109 8.739-7.645 1.525-15.115 3.002-22.454 4.302-10.81 1.899-27.138 4.425-44.067 4.425-17.691 0-32.958-2.619-46.674-8.006l-2.305-.905-.4 2.443c-.421 2.564-1.347 4.929-2.756 7.028-2.561 3.809-6.568 6.294-11.588 7.186-1.28.226-2.621.34-3.985.34-5.38 0-10.873-1.752-15.071-4.808-3.227-2.346-6.097-5.354-8.775-9.196l-3.324-4.769-.313 5.805c-.183 3.389-.697 6.747-1.529 9.98-.837 3.252-2.381 7.912-6.121 10.819-2.202 1.711-4.815 2.578-7.767 2.578-5.089 0-10.569-2.697-13.974-6.885-.344-.415-.691-.879-1.128-1.506l-2.395-3.442-1.168 4.027c-1.828 6.304-7.019 13.096-14.495 14.063-.611.079-1.23.119-1.842.119-7.548 0-13.722-5.921-16.494-11.788-.542-1.15-1.015-2.352-1.402-3.572l-1.733-5.449-2.041 5.341c-1.631 4.268-3.583 7.851-5.966 10.952-2.852 3.697-5.962 5.857-9.22 6.416-.612.098-1.174.145-1.715.145-5.608 0-10.111-4.709-11.923-9.084l-1.385-3.346-2.095 2.954c-.883 1.245-1.896 2.41-3.009 3.46-3.155 2.972-7.701 4.746-12.16 4.746-.709 0-1.417-.045-2.114-.135-1.457-.18-2.839-.573-4.106-1.167l-2.372-1.111-.447 2.581c-4.006 23.13-1.14 47.694 8.073 69.168 9.903 23.081 27.155 43.003 48.568 56.093.341.21.52.505.61.716l.454 1.055 1.139.141c10.782 1.33 21.175 4.293 30.892 8.808l2.452-3.001c-.792-1.073-1.691-2.192-2.559-3.273-2.416-3.016-4.915-6.134-6.369-9.491-.163-.373-.159-.808.011-1.196.168-.384.494-.686.883-.826 1.923-.677 4.23-1.021 6.856-1.021 7.281 0 15.562 2.59 21.044 4.305 6.385 1.986 12.587 4.673 18.583 7.272l1.713.739c2.208.954 4.491 1.939 6.739 2.86 4.274 1.746 8.438 3.93 12.512 6.067l1.426.753c1.126.59 2.348 1.172 3.511 1.72l3.745 1.769.092-3.05c.087-2.87 1.145-5.527 2.975-7.476 2.049-2.167 5.084-3.43 8.386-3.464 3.225 0 6.253 1.211 8.313 3.331 1.4 1.427 2.334 3.122 3.262 4.806.661 1.213 1.266 2.294 1.98 3.239.799 1.056 2.135 2.461 4.506 2.461 1.885 0 4.034-.871 7.33-2.472l.22-.104c3.215-1.553 6.42-3.126 9.625-4.699l.273-.134c12.314-6.053 25.047-12.311 38.15-17.203 14.199-5.296 27.061-8.325 39.32-9.26 2.595-.195 5.213-.294 7.783-.294 1.689 0 3.382.043 5.04.128 2.709.13 5.573.415 8.164 1.617 3.1 1.437 5.218 4.014 5.665 6.89.408 2.65-.511 5.349-2.811 8.254l2.696 2.893c11.288-7.722 21.541-16.814 30.473-27.02.518-.589 1.035-1.178 1.53-1.762l.072-.085c3.159-3.651 6.427-7.427 10.556-10.217 2.857-1.933 6.041-3.322 9.121-4.664l.154-.067c4.257-1.849 8.278-3.595 11.442-6.606 6.602-6.287 7.148-18.267 1.146-25.135-.479-.548-.493-1.366-.036-1.939.29-.361.72-.568 1.18-.568.257 0 .503.064.729.188 5.056 2.775 9.266 4.067 13.25 4.067h.151c4.859-.047 9.282-2.368 11.269-5.92 2.847-5.134.435-11.758-3.416-15.645-4.213-4.267-10.031-6.496-16.119-8.584-.722-.25-1.143-.97-1-1.713.137-.712.751-1.229 1.55-1.229h.007c1.265.057 2.551.086 3.824.086 9.857-.001 19.935-1.732 29.138-5.007 4.723-1.66 7.27-3.825 7.574-6.441.477-4.204-5.147-7.169-6.885-7.979-6.969-3.238-14.783-4.95-22.595-4.95-1.458 0-2.926.061-4.363.181l-.115.01-.113.023c-2.807.565-5.349.982-7.783 1.276-.064.008-.126.012-.189.012-.727 0-1.347-.515-1.477-1.233-.143-.796.348-1.561 1.129-1.751z" fill="#c67045"/><path d="m380.56 344.666c2.601 0 5.977-.15 9.022-1.324 3.428-1.315 6.904-4.451 6.942-8.492.036-4.778-4.746-8.456-8.764-10.701-10.229-5.706-21.839-8.723-33.519-8.723-.002 0-.178-.005-.178-.005l-.13.003c-.406-.02-.711-.21-.899-.37l-1.713-1.461s-1.377 2.067-1.434 2.144c-3.394 4.595-9.051 7.338-15.131 7.338-1.546 0-3.103-.198-4.624-.587l-2.6-.666.105 2.682c.03.771.036 1.511.019 2.208-.102 4.749-1.151 9.231-3.035 12.961l-1.281 2.538 2.821.349c.736.091 1.416.232 2.08.431l.25.075 48.524 1.532c1.178.034 2.366.068 3.545.068z" fill="#c67045"/><path d="m327.918 346.077-5.945-.191c-.115-.003-.229-.027-.369-.076l-1.1-.389-.88.765c-4.391 3.817-10.572 5.919-17.407 5.919-1.34 0-2.722-.086-4.107-.255-6.773-.826-13.225-3.438-19.188-6.137l-1.54-.697-.943 1.403c-2.382 3.539-5.403 6.371-8.738 8.19l-2.419 1.32 2.005 1.891c10.534 9.937 24.826 16.344 39.213 17.578 1.527.128 3.024.193 4.45.193 6.168 0 11.406-1.208 15.572-3.592 6.159-3.533 9.963-10.199 9.251-16.216-.398-3.27-2.477-6.521-5.445-8.495-.679-.44-1.38-.805-2.087-1.083z" fill="#c67045"/><path d="m88.982 109.231c-11.881-.296-24.052-.447-36.177-.447-8.811 0-17.776.08-26.647.237l-.877 3.78c11.693 5.988 24.801 9.153 37.907 9.153 3.093 0 6.194-.181 9.219-.537.063-.008.125-.011.187-.011.76 0 1.4.577 1.492 1.343.047.397-.064.789-.314 1.106-.251.319-.612.521-1.012.569-3.16.369-6.383.557-9.578.557-7.422 0-14.913-.993-22.265-2.953l-1.587 3.621 38.43 24.409 3.072 1.891v-3.557c1.223-14.695 4.443-26.532 9.845-36.185l1.619-2.893z" fill="#f79f3e"/><path d="m218.977 69.266c-1.555-1.929-3.966-2.176-5.893-2.176-1.311 0-2.79.127-4.75.332-1.67.173-3.395.352-5.084.352-3.663 0-6.157-.87-8.089-2.82-3.526-3.559-2.839-9.125-1.177-12.813.889-1.979 2.073-3.77 3.268-5.577 1.083-1.618 2.041-3.085 2.816-4.658 1.352-2.781 2.158-6.964-.016-9.596-1.093-1.326-2.834-2.056-4.9-2.056-2.373 0-4.985.926-6.99 2.479-2.2 1.71-3.946 3.9-5.815 6.242-1.374 1.722-2.794 3.503-4.439 5.102-3.174 3.08-7.209 4.918-10.794 4.918-1.83 0-3.528-.473-5.044-1.406-4.585-2.826-6.113-9.168-4.194-17.394.238-.999.495-2.007.754-3.024l.034-.134c.976-3.872 1.897-7.529 1.704-11.266-.209-4.131-2.416-9.156-6.765-10.427-.663-.194-1.356-.292-2.061-.292-4.475 0-8.589 3.825-10.682 7.617-2.039 3.703-3.144 7.909-4.21 11.97l-.054.201c-.76 2.855-1.544 5.807-2.646 8.622-2.73 6.962-8.917 13.986-16.58 13.986-.334 0-.671-.013-1.012-.04-6.619-.517-11.113-5.602-15.469-10.533l-.783-.883c-3.086-3.466-7.774-7.597-12.58-7.597-.803 0-1.59.116-2.334.344-5.916 1.797-7.66 9.71-7.356 15.94.954 19.542 13.47 38.324 31.148 46.737l.986.47.928-.576c10.542-6.541 23.244-10.144 35.769-10.144 3.758 0 7.51.321 11.153.955 12.262 2.131 24.238 7.663 34.631 15.999l1.264 1.014 19.009-15.552c2.294-1.867 4.893-3.984 6.349-6.685 1.166-2.177 1.634-5.494-.096-7.631z" fill="#d34242"/><path d="m470.713 465.862c-3.47-1.07-7.32-1.59-11.76-1.59-3.36 0-6.65.3-9.14.56-.05.01-.11.01-.17.01-.77 0-1.4-.56-1.49-1.33-.1-.83.47-1.57 1.3-1.68 7.54-1.03 16.08-2.81 22.279-8.18 4.32-3.72 6.85-9.97 6.3-15.54-.63-6.52-4.81-7.86-12.13-9.66l-1.42-.36c-7.28-1.84-14.81-2.77-22.39-2.77-.61 0-1.23.01-1.85.02l-1.45.03c-6.5.11-16.33.29-21.559 3.38l-.14.08c-.19.09-.4.14-.63.14-.53 0-1.04-.28-1.31-.74-.14-.23-.21-.5-.21-.77 0-.54.28-1.03.71-1.29l.24-.14c8.59-5.09 17.179-10.18 25.779-15.29 5.42-3.2 7.81-6.22 7.29-9.21-.91-5.44-7.57-5.44-10.08-5.44-1.69 0-3.68.11-6.25.34l-.43.03c-.53.05-1.03.09-1.49.12-8.69.62-17.42 1.91-25.95 3.84-17.219 3.89-33.609 10.29-48.719 19.03-.24.13-.49.2-.76.2-.48 0-.94-.23-1.22-.61-.45-.63-.36-1.51.21-2.03 5.96-5.39 11.92-11.15 17.71-17.109 2.51-2.6 4.77-5.4 4.32-8.28-.29-1.85-1.8-3.62-3.95-4.61-1.99-.93-4.26-1.22-7.05-1.36-1.57-.08-3.18-.12-4.78-.12-2.53 0-5.1.1-7.64.3-11.99.91-24.579 3.88-38.499 9.08-13 4.84-25.699 11.08-37.969 17.12-3.27 1.6-6.55 3.21-9.84 4.81l-.18.09c-2.4 1.16-5.68 2.75-8.83 2.75-2.7 0-4.91-1.19-6.76-3.64-.84-1.11-1.51-2.32-2.16-3.48l-.05-.11c-.809-1.48-1.65-3.01-2.79-4.18-1.5-1.53-3.72-2.4-6.18-2.4-2.42.03-4.66.94-6.15 2.52-1.49 1.59-2.26 3.88-2.14 6.27.12 2.41 1.12 4.61 2.76 6.03.31.27.49.64.52 1.05.03.4-.1.78-.37 1.09-.29.33-.7.52-1.14.52-.26 0-.64-.06-.99-.37-2.36-2.04-5.7-3.64-8.97-5.2-1.36-.64-2.49-1.18-3.59-1.76l-1.48-.78c-3.96-2.08-8.06-4.23-12.199-5.92-2.84-1.16-5.75-2.42-8.24-3.51l-.2-.08c-5.94-2.58-12.09-5.24-18.37-7.2-5-1.55-13.37-4.16-20.16-4.16-.28 0-.56 0-.84.01l-3.68.12 2.11 3.03c.98 1.39 2.08 2.78 3.15 4.12l.28.34c.96 1.2 2.05 2.57 2.98 3.84l9.03 12.54c.43.59.37 1.41-.13 1.93-.29.3-.68.47-1.09.47-.3 0-.59-.09-.85-.27-16.13-10.91-35.869-16.92-55.599-16.92-2.7 0-5.42.11-8.09.34l-3.76.31 12.79 15.82c.42.51.45 1.25.06 1.81-.28.4-.74.64-1.24.64-.16 0-.33-.03-.5-.08-14.3-4.93-29.089-10.02-44.439-10.02-.35 0-.69.01-1.03.01-5.86.08-10.059 1.08-13.23 3.16-3.35 2.21-6.1 6.64-4.869 10.84.59 1.96 2.38 3.64 4.54 4.29.61.19 1.21.28 1.79.28 1.1 0 2.08-.34 2.82-.97.29-.24.64-.37.99-.37.36 0 .71.13.99.37.56.49.69 1.31.3 1.94-2.96 4.79-8.75 7.89-16.77 8.96-1.94.26-3.88.41-6.079.58-4.12.32-8.02.62-11.74 1.84-4.92 1.62-10.21 5.91-10.17 11.5.03 3.56 3.52 6.58 6.63 6.91.71.07 1.26.62 1.34 1.33.08.7-.34 1.37-1.01 1.6-4.14 1.44-8.88 3.35-12.61 6.67-4.289 3.81-7.32 10.57-4.809 16.11 3.06 6.81 12.309 8.48 20.029 9.18 12.84 1.16 25.7 2.19 38.599 3.1 96.228 6.81 193.736 7.02 288.413 7.21 6.02.01 12.08.03 18.16.03 22.759 0 46.959-.17 71.128-1.29 2.86-.13 5.72-.28 8.57-.44 8.48-.49 16.05-1.15 22.79-4.41 6.16-2.98 12.37-9.41 12.37-17.11-.017-8.602-7.827-15.501-15.517-17.861zm-263.243 13.709c-.28.4-.73.63-1.23.63-.31 0-.61-.09-.87-.27-.329-.24-.55-.59-.62-.99-.07-.39.02-.79.26-1.12 4.69-6.68 8.44-14.04 11.1-21.78 1.74-5.02 3.01-10.2 3.81-15.45l.45-3-2.93.76c-.59.15-1.17.33-1.75.53-5.64 1.92-11.03 5.99-15.34 11.61-5.44 7.11-8.69 15.69-11.849 24.039-.23.6-.78.98-1.41.98-.16 0-.31-.02-.47-.07-.76-.24-1.2-1.03-1.01-1.8 1.7-6.78 2.47-13.88 2.29-20.93-.07-3.08-.32-6.15-.76-9.18-.4-2.76-1.81-9.26-6.3-10-.27-.05-.54-.07-.81-.07-.71 0-1.4.16-2.06.42-2.48.99-4.5 3.53-5.61 5.2-6.42 9.69-8.34 22.15-5.15 33.339.22.77-.2 1.58-.97 1.84-.16.05-.33.08-.5.08-.61 0-1.16-.37-1.39-.94-1.67-4.14-3.87-8.1-6.49-11.77-3.62-5.09-8.07-9.62-13.09-13.25-3.64-2.64-6.75-3.92-9.49-3.92-.64 0-1.27.07-1.88.21-.36.08-.72.2-1.06.35-3.19 1.29-5.63 4.87-5.86 8.78-.3 5.29 2.811 9.7 4.68 11.85 2.99 3.47 6.91 6.14 10.69 8.72.65.45.85 1.3.46 1.99-.26.48-.77.78-1.32.78-.22 0-.43-.05-.62-.13-6.34-2.85-12.829-5.77-19.54-7.9-2.86-.91-5.77-1.67-8.71-2.23-2.85-.53-5.69-.84-8.45-.92-.43 0-.85-.01-1.27-.01-5.19 0-10 .83-14.29 2.47l-3.02 1.15 2.37 2.19c10.65 9.83 25.149 15.47 39.779 15.47 3.02 0 6.03-.24 8.95-.73.08-.01.17-.02.25-.02.74 0 1.36.53 1.49 1.27.06.4-.03.8-.27 1.13-.23.33-.58.54-.98.61-3 .5-6.15.76-9.37.76-17.279 0-34.319-7.48-45.579-20-.309-.34-.439-.8-.38-1.24.08-.46.35-.85.74-1.08 2.83-1.62 5.98-2.88 9.38-3.72 3.43-.84 7.11-1.28 10.94-1.28 3.35 0 6.8.33 10.27.99 3.11.58 6.29 1.4 9.69 2.5.5.16 1 .33 1.51.5l5.14 1.75-2.78-4.66c-2.02-3.39-2.98-6.98-2.78-10.39.25-4.39 2.61-8.37 5.97-10.5 1.02-.65 2.12-1.12 3.29-1.39.84-.2 1.71-.3 2.57-.3 3.4 0 7.079 1.47 11.259 4.5 3.63 2.62 6.97 5.67 9.96 9.11.96 1.1 1.88 2.23 2.77 3.4l3.1 4.1.48-5.12c.68-7.23 3.1-14.15 6.99-20.02 1.92-2.91 4.12-4.97 6.41-6.05 1.25-.6 2.52-.91 3.8-.91.42 0 .85.03 1.26.1 4.56.75 7.77 5.33 8.81 12.57.45 3.15.72 6.32.8 9.43l.17 6.86.39-.64 3.15-5.24c1.06-1.74 2.14-3.34 3.31-4.88 4.79-6.27 10.81-10.7 17.16-12.74 2.26-.74 4.56-1.17 6.86-1.27.43 0 .84.17 1.12.47.3.32.45.75.41 1.19-.32 3.32-.83 6.62-1.51 9.87-2.52 11.973-7.45 23.373-14.52 33.412zm176.276 6.83c-.01-.4.14-.78.42-1.07s.659-.45 1.059-.46c11.53-.2 23.24-4.69 32.119-12.33l2.5-2.15-3.059-1.23c-.42-.17-.85-.34-1.28-.5-2.27-.86-4.59-1.61-6.93-2.24-6.45-1.76-13.139-2.65-19.989-2.65-7.09 0-14.09.97-20.81 2.89l-.11.03-.11.04c-2.8 1.16-5.69 2.19-8.599 3.04-.14.04-.29.07-.43.07-.63 0-1.2-.41-1.42-1.01-.27-.75.09-1.59.82-1.9 2.49-1.06 5.06-1.99 7.67-2.78.31-.1.63-.2.95-.29l.11-.03.11-.05c.31-.13.62-.26.92-.4 6.52-2.83 12.63-6.48 18.189-10.84l1.1-.86 3.51-2.75-4.45.03-1.4.01c-20.87.13-41.389 10.45-57.898 18.75-.22.11-.45.16-.68.16-.1 0-.19-.01-.28-.03-.46-.08-.85-.37-1.07-.79-.38-.74-.08-1.65.65-2.04 2.48-1.29 4.91-2.68 7.29-4.16.77-.47 1.52-.95 2.27-1.45 6.97-4.54 13.489-9.85 19.37-15.77 3.079-3.1 5.99-6.37 8.689-9.79l1.75-2.22-2.67-.91c-1.14-.39-2.44-.59-3.87-.59-2.45 0-5.01.58-7.15 1.24-.79.25-1.521.5-2.17.75-12.409 4.7-24.089 12.18-33.769 21.639l-.12.12-.1.14c-3.5 4.85-7.4 9.44-11.6 13.67-.29.28-.66.44-1.06.44-.25 0-.63-.06-.98-.35-.6-.51-.72-1.39-.27-2.03 3.41-4.87 7.3-9.48 11.58-13.71l.12-.12.1-.14c2.36-3.29 4.55-6.74 6.55-10.3 1.03-1.83 2.01-3.69 2.93-5.58 2.479-5.08 2.76-8.77.8-10.96-.66-.75-1.91-1.64-4.12-1.64-1.62 0-3.28.46-4.71 1.02-1.47.58-2.69 1.26-3.37 1.67-18.5 11.2-31.409 30.649-34.549 52.039-.11.74-.75 1.3-1.49 1.3-.07 0-.15-.01-.22-.02-.83-.12-1.4-.89-1.28-1.72 3.26-22.279 16.72-42.539 35.989-54.189 1.52-.93 3.07-1.66 4.59-2.18 1.79-.62 3.53-.95 5.12-.95 2.61 0 4.74.9 6.31 2.66 2.69 3.02 2.69 7.69-.01 13.56-.01.01-.01.01-.01.01-.05.14-.12.28-.19.43l-3.12 6.52 6.02-3.99c6.26-4.15 12.92-7.57 19.789-10.17 1.58-.6 3.11-1.07 4.58-1.42 2.05-.49 3.97-.73 5.76-.73 4.01 0 7.18 1.21 9.43 3.62.5.53.55 1.34.11 1.93-1.18 1.59-2.4 3.15-3.67 4.69-3.02 3.69-6.28 7.21-9.73 10.53l2.03 3.33c10.4-3.57 19.77-5.3 28.659-5.3 1.34 0 2.67.04 4 .12 1.56.09 3.1.24 4.62.45.57.08 1.05.48 1.23 1.03.1.32.1.66-.01.96-.07.22-.2.43-.37.6-3.02 2.92-6.28 5.64-9.68 8.07l-5.36 3.84 6.579-.21c.87-.03 1.73-.04 2.6-.04 7.98 0 15.91 1.2 23.41 3.51 3.12.95 6.15 2.1 9.09 3.44.62.28 1.23.56 1.84.86.43.21.74.61.83 1.09s-.05.95-.38 1.3c-9.82 10.52-23.699 16.69-38.109 16.94-.82.001-1.5-.669-1.51-1.499z" fill="#ffe07a"/><path d="m91.255 73.466c-2.42-6.624-3.093-13.877-1.934-20.832.367-2.2 1.057-4.583 2.932-5.79 1.83-1.179 4.326-.843 6.189.284s3.219 2.912 4.474 4.691c4.711 6.677 9.232 14.362 16.906 17.171 1.508.552 3.172.888 4.717.45 2.462-.698 3.963-3.102 5.349-5.253 1.464-2.273 3.054-4.465 4.76-6.563 2.013-2.476 4.678-5.027 7.857-4.746 3.188.282 5.429 3.381 6.277 6.467.849 3.086.76 6.374 1.654 9.447.282.969.705 1.969 1.542 2.533 1.483.999 3.492.207 5.001-.752 6.977-4.433 11.825-12.137 19.588-14.976.607-.222 1.269-.413 1.893-.243.688.187 1.189.773 1.572 1.374 2.138 3.349 1.938 7.862 4.336 11.029 1.863 2.459 4.994 3.651 8.056 4.03s6.163.067 9.247.142c1.147.028 2.353.129 3.306.767 1.718 1.15 1.985 3.582 1.657 5.623-1.195 7.435-7.609 12.815-13.908 16.943-2.103 1.378-4.651 2.749-7.009 1.877-1.148-.424-2.042-1.323-2.934-2.161-5.922-5.564-13.372-9.461-21.292-11.276-6.555-1.502-13.357-1.597-20.069-1.179-8.514.531-17.262 1.965-24.817 6.136-3.42 1.888-5.315 3.701-9.286 2.311-3.533-1.237-6.67-3.549-9.219-6.256-3.027-3.211-5.333-7.109-6.845-11.248z" fill="#c13030"/><g fill="#b25932"><path d="m66.103 273.586c.379-1.514.788-2.961 1.229-4.296 10.691 3.283 23.681-.782 27.494-12.318 1.038 5.877 4.072 11.383 8.484 15.4.863.785 1.844 1.545 3.002 1.685 1.563.189 3.006-.782 4.281-1.706 3.448-2.5 6.937-5.037 9.645-8.323 2.709-3.286 4.596-7.46 4.285-11.708 2.319 5.695 5.45 11.26 10.28 15.065s11.637 5.544 17.294 3.134c5.63-2.398 8.995-8.222 11.069-13.979.724-2.011 1.299-4.398.096-6.165 2.984 3.14 5.967 6.279 8.951 9.419 1.974 2.077 4.16 4.27 6.99 4.717 3.037.48 6.011-1.208 8.295-3.266 6.232-5.615 9.215-14.224 9.307-22.611 7.096 9.182 17.49 15.76 28.826 18.242-13.578 11.52-31.182 17.102-48.602 20.797-17.42 3.694-35.265 5.808-52.08 11.669-5.507 1.919-11.106 4.402-14.766 8.943-14.439 17.915 9.141 40.094 26.033 43.622 13.482 2.816 29.236-4.712 32.937-17.979 4.262 12.02 9.522 25.196 21.005 30.743 7.324 3.538 18.991 4.015 23.598-3.93 3.041-5.244 2.768-11.745 1.799-17.73-.969-5.984-2.546-12.007-1.807-18.024 5.351 5.328 10.049 11.291 15.53 16.485s11.951 9.688 19.348 11.203c7.17 1.468 12.03-.063 16.931-4.807 4.327-4.189 10.689-6.235 16.617-4.866 6.966 1.609 12.767 7.348 19.914 7.542 7.294.198 13.347-5.423 17.995-11.048.944-1.142 1.966-2.367 3.398-2.747 1.094-.29 2.254-.033 3.336.296 6.401 1.946 12.666 6.455 19.137 4.756 4.268-1.12 7.663-4.834 12.056-5.256 4.347-.418 8.206 2.472 12.024 4.59 9.122 5.061 21.821 5.902 32.12 5.46 13.292-.57 26.985-8.992 38.165-15.471 3.357 3.814 6.782 7.737 8.6 12.482s1.725 10.56-1.553 14.442c-2.221 2.63-5.53 4.019-8.605 5.567-26.947 13.57-42.411 44.477-70.155 56.334 3.632-4.931 6.314-10.558 7.858-16.484.456-1.749.808-3.626.226-5.337-1.145-3.369-5.232-4.589-8.764-5.019-15.445-1.881-30.984 2.031-45.823 6.71-24.517 7.73-48.296 17.628-71.778 28.088-1.236-6.996-7.056-13.749-14.153-13.413s-12.032 10.701-6.49 15.146c-23.921-12.362-49.318-21.865-75.479-28.241 3.342 8.65 6.685 17.301 10.027 25.951-1.778-4.601-14.247-9.364-18.477-11.194-5.376-2.326-10.93-4.2-16.478-6.06-8.282-2.776-15.287-6.102-21.884-11.961-20.287-18.018-34.552-42.835-40.866-69.142-2.129-8.87-4.394-19.132-3.357-28.294.59-5.194 1.558-11.602 2.935-17.113z"/><path d="m287.829 308.725c-3.946 4.724-10.167 7.456-16.316 7.163-8.065-.384-15.05-5.51-21.214-10.725-1.781-1.507-3.654-3.238-4.007-5.543 2.672.189 4.957 1.881 7.343 3.1 7.088 3.62 15.916 3.082 22.98-.585 2.571-1.335 4.927-3.044 7.271-4.746 1.43-1.038 2.86-2.076 4.29-3.115.048.768.096 1.536.144 2.305"/><path d="m258.767 284.73c-1.002-1.722-1.703-3.849-.933-5.686-.713 1.701 8.477 3.846 9.39 3.934 3.665.352 7.25-.433 10.682-1.664 4.706-1.687 7.843-2.101 7.924 4.167.197 14.982-22.348 7.349-27.063-.751z"/><path d="m242.479 302.887c-2.524 3.509-6.786 5.293-10.938 6.494-4.057 1.173-8.543 1.922-12.402.206-2.972-1.321-5.161-3.935-6.978-6.632-3.766-5.589-6.467-12.468-4.868-19.015.287-1.176 1.113-2.569 2.299-2.328.679.138 1.117.775 1.523 1.336 3.369 4.663 9.02 7.107 14.592 8.541s11.371 2.086 16.717 4.212c.863.343 1.756.761 2.275 1.531 1.023 1.519.141 3.562-.839 5.109-3.659 5.776-8.641 10.708-14.453 14.309"/><path d="m411.742 305.771c6.206-1.893 13.2-5.203 14.382-11.583-19.612-2.015-39.588-.426-58.635 4.664-3.392.907-16.237 3.657-16.272 8.457-.031 4.282 9.436 5.324 12.263 5.583 15.612 1.43 33.416-2.593 48.262-7.121z"/><path d="m410.396 256.367c7.499-3.473 15.112-7.337 20.469-13.629.751-.882 1.492-2.04 1.077-3.121-.382-.993-1.552-1.398-2.596-1.602-5.29-1.03-10.743.052-15.993 1.27-20.208 4.687-44.014 10.567-61.765 21.701-6.029 3.781-10.301 12.078-1.222 14.641 8.34 2.354 17.859-2.391 25.494-5.121 11.716-4.191 23.244-8.91 34.536-14.139z"/><path d="m430.117 295.622c15.698 1.565 31.663.427 46.98-3.35 4.318-1.065 8.761-2.436 11.984-5.499.547-.519 1.086-1.174 1.036-1.926-.079-1.192-1.487-1.751-2.653-2.012-22.388-5.012-46.651-1.078-66.307 10.753"/><path d="m374.406 272.281c15.135 1.723 30.374-1.166 45.596-1.73 10.798-.401 21.676.366 32.369-1.19 17.033-2.48 32.67-10.717 47.251-19.863-2.503-2.856-6.945-2.593-10.708-2.081-42.79 5.819-85.788 13.316-125.697 29.813"/></g><path d="m417.925 487.901c6.69.81 13.75 1.76 19.04 5.93 3.53 2.79 5.78 7.53 5.54 11.85-24.169 1.12-48.369 1.29-71.128 1.29-6.08 0-12.14-.02-18.16-.03-94.677-.19-192.185-.4-288.413-7.21-7.93-2.28-15.629-5.32-22.679-9.67-3.59-2.21-7.09-4.86-9.15-8.54-2.05-3.69-2.33-8.62.28-11.93 2.3-2.9 6.18-3.95 9.809-4.65 15.98-3.08 32.209-2.69 48.409-.73 4.07.5 8.14 1.09 12.2 1.75 5.74.94 11.46 2.02 17.159 3.15 3.64.72 7.27 1.46 10.88 2.2-3.21-1.44-6.33-3.07-9.34-4.89-10.94-6.6-20.44-15.59-27.569-26.189-1.52-2.25-2.97-5.14-1.72-7.55.77-1.47 2.37-2.33 3.97-2.76 5.85-1.6 11.91 1.23 17.219 4.16 5.15 2.85 10.21 5.86 15.16 9.04.98.62 1.95 1.26 2.91 1.9 9.24 6.11 18.089 12.8 26.489 20.02-.35-1.13-.68-2.27-.97-3.41-.56-2.17-1.01-4.37-1.35-6.59-1.31-8.49-1.03-17.24.87-25.619.51-2.24 1.22-4.6 3-6.05 4.5-3.68 10.929 1.11 14.349 5.81.521.72 1.03 1.44 1.53 2.17.59.83 1.16 1.67 1.71 2.53 3.9 5.94 7.23 12.26 9.93 18.83 1.24 2.98 2.34 6.01 3.3 9.08.09-1.01.19-2.02.29-3.03 1.43-14.36 3.8-29.429 13.689-39.759 5.41 4.35 8.42 10.27 9.93 16.9.22.98.41 1.97.58 2.98.87 5.49.86 11.36.42 17.16-.28 3.69-.73 7.36-1.24 10.88 1.35-7.21 3.76-14.23 7.12-20.759 1.84-3.62 3.98-7.09 6.39-10.36 1.87-2.54 4.73-5.24 7.74-4.29 2.19.69 3.35 3.06 4.04 5.25 3.17 9.97 1.77 20.749.35 31.119 6.18-17.3 16.569-33.079 30.019-45.589 5.1 1.24 6.22 7.97 5.77 13.2-.68 7.76-2.53 15.41-5.44 22.639 8.41-15.69 18.909-30.369 34.139-39.179 1.86-1.08 4.09-2.08 6.099-1.3 1.53.6 2.37 1.96 2.79 3.57.25.98.34 2.06.33 3.1-.01.41-.02.82-.06 1.22-1.32 15.69-10.15 29.609-18.73 42.809 6.8-9.91 14.85-18.949 23.89-26.869 1.95-1.72 3.94-3.37 5.98-4.98 0 0 0 0 .01-.01 3.82-3 7.8-5.82 11.91-8.42 4.81-3.05 12.32-5.25 15.22-.35-.02.05-.04.1-.06.15-.42 1.18-.87 2.34-1.34 3.5-4.38 10.78-10.63 20.799-18.39 29.489-2.17 2.44-4.47 4.78-6.87 6.99 2.99-2.81 6.03-5.65 9.14-8.44 6.19-5.58 12.63-11 19.37-15.77 3.17-2.25 6.4-4.35 9.719-6.26 10.16-5.84 21.02-9.87 32.789-10.62 3.49 4.33.03 10.68-3.67 14.85-1.35 1.52-2.73 3-4.16 4.45-.96.99-1.94 1.95-2.93 2.9-2.85 2.71-5.82 5.29-8.92 7.72 3.21-1.83 6.5-3.49 9.86-5 2.57-1.16 5.18-2.22 7.83-3.18 11.27-4.12 23.16-6.52 35.139-7 2.23 5.09-2.14 10.53-6.38 14.11-3.68 3.11-7.55 6-11.58 8.66-1.12.73-2.26 1.46-3.41 2.15-7 4.3-14.44 7.88-22.159 10.68 9.5-3.29 19.259-6.49 29.089-8.44 1.85-.37 3.71-.69 5.57-.95 8.8-1.29 17.64-1.41 26.38.48-7.309 9.577-17.869 16.637-29.528 19.707z" fill="#f7c05e"/><path d="m192.07 252.707c-1.16 4.49-2.77 7.4-5.05 9.18-1.62 1.26-3.67 1.92-5.93 1.92-4.21 0-8.76-2.25-11.59-5.73-4.56-5.62-5.83-13.26-6.94-19.999-.13-.73-.76-1.27-1.5-1.27-.08 0-.15.01-.23.02-.82.12-1.38.87-1.27 1.7.87 6.47 1.75 13.08.08 19.32-.41 1.53-1.06 3.13-1.94 4.65-.03-.23-.06-.45-.08-.68-3.19 1.96-5.579 4.88-7.98 7.81-.66.23-1.36.39-2.07.48-.47.06-.94.09-1.4.09-6.23 0-11.53-5.21-13.82-10.05-2.94-6.22-3.1-13.65-3.25-20.209-.02-.85-.61-1.48-1.38-1.55-.06 0-.11-.01-.15-.01-.71 0-1.33.51-1.47 1.21-1.88 9.13-4 19.469-10.03 27.279-.22.28-.43.55-.65.81-.19-.66-.34-1.32-.45-2-2.43 2.2-4.88 4.42-7.38 6.57-.01 0-.01 0-.02 0-4.62 0-8.54-4.44-9.66-8.72-1.14-4.4-.34-9.25.49-12.97.29-1.22.56-2.39.82-3.51.19-.81-.31-1.62-1.12-1.81-.11-.03-.23-.05-.35-.05-.7 0-1.3.48-1.47 1.16-.27 1.09-.54 2.22-.81 3.41-1.5 6.06-3.66 12.82-8.42 17.309-2.58 2.41-6.46 3.91-10.13 3.91-.57 0-1.14-.04-1.68-.11-2.1-.26-4.99-1.17-6.77-4.01-2.98-4.72-.97-11.05 1.55-17.66 7.2-18.96 11.43-38.859 12.58-59.149.24-4.24.35-8.53.41-12.76 1.06-12.48 1.17-25.079 2.99-37.479 1.34-9.11 3.88-18.73 8.07-27.419.44-.74.89-1.46 1.35-2.16 10.42-15.82 30.499-26.049 51.158-26.049 2.93 0 5.85.2 8.72.61-4.3 6.1-8.36 12.39-11.62 19.099-3.31 6.79-5.73 14-7.26 21.39-.59 2.78-1.05 5.59-1.37 8.42-2.05 17.41.68 35.399 8.18 51.249 9.95 21.01 28.11 37.909 49.579 46.729 1.253 6.949 1.013 14.209-.737 21.029z" fill="#bc4c46"/><path d="m225.5 247.757c-1.28 1.88-2.6 3.72-3.96 5.54-3.9-.43-7.74-1.87-10.82-4.1-5.39-3.92-9.15-9.51-12.179-15.39 2.519.85 5.07 1.58 7.659 2.2 6.08 1.44 12.36 2.3 18.07 4.82.94.41 1.92.92 2.42 1.81.889 1.62-.15 3.59-1.19 5.12z" fill="#bc4c46"/></g></g><g><path d="m134.831 135.689c3.502 0 6.35-2.849 6.35-6.351s-2.848-6.35-6.35-6.35-6.351 2.849-6.351 6.35c0 3.502 2.849 6.351 6.351 6.351z"/><path d="m488.856 263.589c8.822-3.261 23.586-8.719 22.913-20.664-.254-4.509-3.016-8.75-7.038-10.806-3.142-1.605-6.579-1.757-9.555-1.773-13.759-.067-33.137.727-49.454 7.614.012-1.25-.181-2.486-.608-3.659-1.326-3.64-5.202-8.044-16.133-8.353-24.263-.69-48.385 4.118-71.702 8.766-7.331 1.461-14.912 2.972-22.355 4.281-26.527 4.667-60.762 8.374-90.599-4.351-.719-5.198-2.727-9.982-4.413-13.264-1.2-2.338-2.545-4.662-3.846-6.911-2.892-4.998-5.882-10.165-7.261-15.504-1.065-4.127-.689-8.62-.291-13.376.175-2.094.356-4.26.404-6.401.45-20.097-3.842-39.143-12.413-55.077-4.664-8.673-10.607-16.389-17.462-22.88l16.853-13.78c2.659-2.175 5.674-4.641 7.585-8.19 2.4-4.46 2.157-9.751-.606-13.167-3.905-4.827-10.088-4.188-15.053-3.676-3.784.391-7.357.759-9.102-1.005-1.616-1.634-1.22-4.891-.167-7.226.737-1.638 1.78-3.21 2.884-4.876 1.085-1.637 2.207-3.33 3.132-5.225 2.102-4.314 3.036-10.516-.648-14.984-4.646-5.637-13.394-4.569-18.833-.346-2.681 2.081-4.705 4.621-6.663 7.076-1.339 1.68-2.603 3.266-4.015 4.634-2.765 2.681-6.99 4.515-9.717 2.836-3.842-2.366-2.453-9.772-1.936-11.985.228-.973.475-1.946.723-2.921 1.045-4.112 2.125-8.364 1.889-12.907-.313-6.034-3.639-13.005-10.364-14.975-7.792-2.281-15.073 3.435-18.54 9.714-2.325 4.209-3.519 8.739-4.676 13.118-.766 2.908-1.491 5.655-2.515 8.268-2.156 5.495-6.978 11.202-12.533 10.78-4.599-.359-8.416-4.68-12.108-8.858l-.791-.894c-6.794-7.644-13.753-10.656-20.121-8.717-8.679 2.643-11.302 12.957-10.91 20.986.98 20.086 13.106 39.377 30.601 49.253-3.791 3.05-7.19 6.517-10.092 10.35-.354-.133-.728-.224-1.127-.235-27.778-.759-55.951-.717-83.734.125-1.536.047-2.862 1.09-3.269 2.572s.201 3.057 1.498 3.881l70.91 45.039c.247.157.508.272.774.36-.212 5.133-.277 10.256-.325 15.265-.058 5.995-.117 12.194-.458 18.238-1.115 19.759-5.243 39.158-12.268 57.658-2.181 5.745-5.421 14.331-1.477 21.44-5.375 25.438-2.707 52.576 7.541 76.471 9.087 21.182 24.126 39.803 42.843 53.26-5.067-.001-10.133.371-15.146 1.127-1.239.188-2.284 1.023-2.739 2.191s-.25 2.491.537 3.467c2.286 2.835 4.574 5.667 6.864 8.498-11.303-3.596-23.448-6.636-35.758-6.458-4.316.057-10.662.532-15.919 3.985-6.469 4.251-8.381 11.488-6.925 16.437.799 2.719 2.73 5.069 5.281 6.551-2.167.831-4.463 1.305-6.474 1.573-1.876.25-3.767.395-5.769.547-4.258.324-8.661.66-12.965 2.085-6.818 2.252-13.673 8.163-13.614 16.294.023 3.088 1.376 5.828 3.369 7.9-2.54 1.25-5.06 2.806-7.34 4.835-5.477 4.872-9.707 13.809-6.052 21.916 4.133 9.17 15.083 11.288 24.16 12.109 108.849 9.88 219.983 10.111 327.488 10.333 5.918.012 11.87.023 17.852.023 26.534 0 53.598-.233 80.297-1.74 8.692-.493 17.122-1.238 24.684-4.894 9.259-4.47 15.227-12.963 15.204-21.637-.02-8.089-5.994-18.624-19.062-22.641-.529-.163-1.061-.313-1.593-.45 1.539-.914 3.021-1.964 4.418-3.173 5.581-4.81 8.728-12.595 8.02-19.829-.454-4.692-2.422-8.106-6.016-10.437-2.889-1.874-6.307-2.716-9.926-3.607l-1.383-.343c-8.324-2.106-16.936-3.084-25.572-2.904l-1.434.027c-1.122.02-2.307.041-3.531.076 3.019-1.791 6.039-3.583 9.057-5.375 2.724-1.611 11.012-6.514 9.686-14.365-1.86-11.034-15.279-9.837-21.729-9.262-.661.059-1.279.115-1.834.155-8.896.631-17.876 1.956-26.695 3.94-3.623.82-7.208 1.752-10.755 2.785 7.371-5.979 14.248-12.561 20.53-19.74.52-.594 1.036-1.193 1.554-1.792 3.102-3.593 6.03-6.987 9.635-9.421 2.524-1.706 5.415-2.962 8.475-4.292 4.474-1.944 9.1-3.956 12.894-7.57 6.042-5.756 8.167-14.901 6.166-22.919 2.355.633 4.606.94 6.844.912 6.638-.056 12.762-3.391 15.603-8.498 3.065-5.511 2.597-14.703-4.229-21.611-1.335-1.351-2.792-2.524-4.335-3.561 6.78-.811 13.483-2.368 19.859-4.632 6.668-2.367 10.324-5.928 10.866-10.582.602-5.167-2.951-9.945-9.749-13.108-3.188-1.483-6.525-2.667-9.945-3.545 2.882-.995 5.854-2.096 8.923-3.305.847-.333 1.81-.689 2.851-1.074zm-409.055-219.021c-.29-5.952 1.439-12.573 5.957-13.949 4.741-1.444 10.085 3.56 12.849 6.672l.778.879c4.399 4.979 9.386 10.622 16.808 11.201 9.161.709 16.423-7.123 19.594-15.202 1.173-2.991 1.983-6.065 2.768-9.038 1.095-4.15 2.129-8.07 4.034-11.52 2.175-3.939 6.576-7.518 10.444-6.381 3.264.956 5.158 5.06 5.343 8.62.181 3.484-.725 7.048-1.682 10.821-.259 1.018-.518 2.034-.755 3.051-2.13 9.117-.277 16.239 5.082 19.539 6.072 3.738 13.546.799 18.259-3.772 1.732-1.68 3.198-3.518 4.615-5.296 1.78-2.233 3.462-4.342 5.482-5.91 2.804-2.176 7.309-2.952 9.14-.73 1.474 1.787.939 5.037-.244 7.465-.721 1.48-1.669 2.911-2.673 4.425-1.21 1.825-2.461 3.711-3.432 5.867-1.918 4.257-2.658 10.747 1.573 15.024 4.105 4.149 9.787 3.562 14.796 3.045 4.59-.474 7.476-.634 8.894 1.116 1.109 1.373.781 3.779-.116 5.447-1.253 2.328-3.591 4.24-5.852 6.089l-17.771 14.531c-10.505-8.433-22.714-14.179-35.545-16.413-16.839-2.932-34.382.812-48.315 9.463-17.053-8.111-29.111-26.179-30.031-45.044zm-39.496 79.347c7.457 1.996 15.175 3.039 22.864 3.039 3.283 0 6.561-.188 9.81-.571 1.92-.226 3.293-1.965 3.066-3.885-.226-1.919-1.963-3.291-3.885-3.067-15.637 1.842-31.986-1.221-46.045-8.431 20.93-.38 41.978-.317 62.83.208-5.549 9.901-8.869 22.087-10.111 37.096-.002.026-.003.053-.005.079zm31.559 125.984c7.279-19.171 11.556-39.274 12.712-59.749.351-6.207.411-12.489.469-18.565.072-7.471.146-15.197.768-22.704 1.304-15.761 4.985-28.051 11.254-37.572 12.063-18.325 36.692-28.302 59.881-24.263 21.884 3.811 41.845 18.906 53.394 40.38 7.998 14.871 12.002 32.716 11.579 51.605-.044 1.927-.208 3.893-.382 5.974-.43 5.128-.873 10.432.489 15.71 1.617 6.266 4.852 11.855 7.978 17.26 1.315 2.274 2.559 4.421 3.679 6.603 2.114 4.116 6.515 14.455 1.743 21.549-2.253 3.349-5.758 4.589-8.302 5.039-5.118.906-10.953-.468-15.239-3.583-8.08-5.873-12.422-15.958-16.252-24.855-.743-1.726-2.719-2.557-4.472-1.883-1.755.675-2.662 2.616-2.057 4.395 2.929 8.595 3.296 18.171 1.033 26.965-1.04 4.041-2.42 6.62-4.344 8.116-4.182 3.251-11.242.835-14.759-3.497-4.207-5.179-5.442-12.563-6.531-19.078-.316-1.884-2.077-3.17-3.974-2.884-1.89.285-3.201 2.032-2.947 3.926.834 6.226 1.697 12.665.131 18.543-1.259 4.72-5.053 10.115-10.41 10.807-5.562.721-10.834-3.899-13.164-8.833-2.77-5.869-2.928-13.105-3.066-19.488-.038-1.781-1.408-3.248-3.182-3.41-1.77-.159-3.387 1.035-3.745 2.78-1.837 8.916-3.919 19.022-9.652 26.466-2.057 2.67-4.113 4.195-6.11 4.533-3.8.644-7.552-3.262-8.566-7.163-.986-3.795-.385-8.017.501-12.03.296-1.197.567-2.369.829-3.499.435-1.874-.726-3.748-2.597-4.195-1.88-.45-3.754.702-4.212 2.57-.271 1.103-.554 2.259-.82 3.458-1.444 5.818-3.489 12.187-7.843 16.284-2.571 2.42-6.677 3.743-10.194 3.293-1.682-.214-3.973-.926-5.341-3.097-2.489-3.953-.606-9.781 1.721-15.908zm333.347 152.47c8.472-1.906 17.101-3.18 25.653-3.786.596-.043 1.253-.102 1.958-.164 8.501-.76 13.549-.436 14.204 3.454.435 2.57-3.213 5.321-6.353 7.179-8.59 5.1-17.179 10.19-25.769 15.28l-.216.128c-1.662.986-2.211 3.132-1.225 4.795.985 1.664 3.134 2.21 4.796 1.226 4.766-2.826 14.285-2.997 20.583-3.11l1.453-.028c8.034-.162 15.996.74 23.714 2.693l1.422.353c7.499 1.847 10.166 2.938 10.648 7.925.486 4.965-1.774 10.53-5.629 13.853-5.825 5.04-14.012 6.727-21.252 7.712-1.895.258-3.232 1.989-3.003 3.888.229 1.898 1.92 3.258 3.842 3.061 6.585-.694 13.579-1.059 20.105.952 7.004 2.152 14.103 8.328 14.121 15.968.018 6.82-5.636 12.606-11.249 15.316-6.412 3.101-13.773 3.74-22.035 4.208-32.511 1.835-65.666 1.771-97.769 1.706-107.323-.222-218.299-.452-326.841-10.305-7.182-.649-15.765-2.147-18.41-8.014-2.105-4.669.581-10.481 4.323-13.81 3.481-3.1 7.992-4.913 11.944-6.279 1.55-.535 2.52-2.074 2.335-3.703-.185-1.628-1.476-2.911-3.105-3.085-2.184-.234-4.838-2.494-4.856-4.95-.031-4.379 4.408-8.142 8.811-9.597 3.493-1.156 7.286-1.445 11.301-1.751 2.011-.153 4.091-.312 6.162-.588 8.622-1.148 14.914-4.567 18.195-9.885.902-1.462.609-3.363-.689-4.486-.657-.568-1.473-.852-2.289-.852-.799 0-1.599.273-2.25.819-.892.749-2.115.529-2.767.333-1.538-.465-2.83-1.656-3.215-2.965-.952-3.239 1.377-6.855 4.053-8.613 2.836-1.863 6.702-2.765 12.171-2.837 15.375-.21 30.331 4.926 44.803 9.904 1.478.508 3.111-.025 4.006-1.303.896-1.279.835-2.996-.147-4.209-3.478-4.295-6.957-8.591-10.43-12.891 21.009-1.752 42.73 3.493 60.426 15.008 1.947 1.267 4.626 2.586 6.371 1.052 1.939-1.704.485-4.856-1.047-6.935-4.63-6.283-9.259-12.566-13.888-18.848 24.818 2.297 50.383 15.159 71.62 27.632 1.28.752 2.691 1.544 4.157 1.314 4.961-.777 1.124-5.492.197-7.437-1.555-3.262-.855-7.457 2.62-9.207 1.888-.951 4.25-.891 6.088.155 3.354 1.909 4.311 6.261 6.784 9.224 4.799 5.751 11.895 3.637 17.622.864l.205-.099c3.283-1.587 6.557-3.197 9.831-4.807 12.234-6.016 24.884-12.237 37.786-17.049 13.743-5.129 26.158-8.059 37.955-8.958 4.084-.315 8.18-.37 12.181-.166 2.558.127 4.608.373 6.307 1.165 1.533.711 2.642 1.931 2.825 3.11.319 2.052-1.735 4.487-3.791 6.603-5.689 5.871-11.615 11.599-17.612 17.025-1.327 1.201-1.534 3.21-.479 4.657 1.053 1.446 3.028 1.863 4.58.969 14.923-8.631 31.128-14.961 48.158-18.814zm51.865-136.037c-2.765.252-5.495.706-8.158 1.365-1.797.445-2.936 2.213-2.599 4.034.336 1.821 2.031 3.063 3.871 2.837 2.562-.317 5.2-.75 7.923-1.303 8.772-.729 17.909.849 25.962 4.596 2.819 1.311 6.016 3.657 5.749 5.951-.272 2.337-4.036 4.008-6.255 4.795-10.232 3.633-21.374 5.294-32.22 4.803-1.743-.073-3.271 1.132-3.597 2.843-.325 1.71.656 3.399 2.303 3.964 5.859 2.011 11.442 4.143 15.353 8.1 3.251 3.29 5.439 9.066 3.091 13.288-1.637 2.942-5.384 4.866-9.545 4.901-3.655.026-7.618-1.184-12.432-3.822-1.487-.816-3.347-.446-4.409.876-1.063 1.322-1.024 3.217.091 4.495 5.342 6.117 4.852 16.788-1.028 22.389-2.896 2.758-6.763 4.439-10.856 6.219-3.218 1.398-6.544 2.844-9.603 4.911-4.377 2.956-7.752 6.867-11.015 10.649-.507.587-1.014 1.174-1.522 1.756-8.838 10.099-18.938 19.078-30.074 26.574 4.345-4.298 4.004-12.357-.69-16.272-3.183-2.655-7.554-3.298-11.691-3.553-32.553-2.009-63.097 12.844-91.515 26.819-3.26 1.603-6.519 3.206-9.79 4.786l-.207.101c-5.59 2.706-7.504 3.114-9.403.6-4.629-6.128-7.713-13.496-17.083-12.064-6.108.933-11.186 6.488-11.569 12.655.074-1.201-14.993-7.205-16.693-7.987-5.263-2.42-10.565-4.79-15.908-7.031-11.368-4.767-23.291-8.783-35.713-9.261-2.413-.093-5.027.013-6.929 1.501-4.917 3.846 2.663 11.258 5.094 14.294.907 1.132 1.77 2.208 2.537 3.247-9.954-4.626-20.648-7.656-31.544-8.999-.274-.654-.742-1.235-1.394-1.633-21.079-12.884-38.051-32.485-47.79-55.19-9.123-21.27-11.896-45.263-7.94-68.068 1.434.675 3.02 1.134 4.723 1.351 5.666.722 11.743-1.247 15.877-5.139 1.243-1.169 2.331-2.439 3.289-3.779 2.271 5.517 7.561 10.329 13.766 10.329.665 0 1.34-.055 2.022-.17 3.792-.642 7.321-3.052 10.488-7.164 2.729-3.542 4.722-7.452 6.259-11.493.416 1.306.914 2.597 1.512 3.862 3.306 7 11.091 13.986 20.391 12.787 8.428-1.09 14.137-8.5 16.155-15.51.391.569.805 1.125 1.245 1.667 5.684 7 16.883 10.521 24.49 4.609 4.219-3.28 5.916-8.362 6.826-11.898.873-3.392 1.404-6.885 1.599-10.403 2.532 3.643 5.546 7.003 9.254 9.698 5.769 4.193 13.648 6.039 20.574 4.813 5.563-.984 10.021-3.759 12.89-8.025 1.678-2.494 2.63-5.15 3.067-7.832 30.838 12.112 65.143 8.384 91.833 3.688 7.521-1.324 15.141-2.842 22.51-4.311 22.937-4.572 46.659-9.293 70.137-8.634 3.165.09 8.64.696 9.754 3.752.684 1.875-.529 4.186-1.946 5.54-2.012 1.924-4.944 3.086-7.78 4.21l-71.779 28.454c-1.653.656-2.552 2.447-2.09 4.164.463 1.718 2.135 2.811 3.899 2.551 18.388-2.76 37.571-1.536 55.464 3.543 4.472 1.269 9.939 3.619 10.596 7.612.471 2.861-1.854 5.87-4.395 7.364-3.272 1.924-7.426 2.472-11.443 3l-54.31 7.15c1.522-5.111 1.416-11.044-.436-16.911-2.077-6.585-5.952-12.407-9.636-17.614 1.826-1.49 3.417-3.274 4.642-5.319 2.836-4.735 3.646-10.51 2.224-15.843-.499-1.867-2.424-2.977-4.284-2.479-1.868.499-2.977 2.417-2.479 4.285.925 3.462.377 7.366-1.465 10.44-1.843 3.075-5.026 5.4-8.516 6.218-1.792.42-3.403.091-3.725-.468-.968-1.674-3.108-2.246-4.782-1.278s-2.245 3.108-1.278 4.782c1.546 2.673 4.576 4.165 8.15 4.165 1.04 0 2.126-.126 3.234-.386.734-.172 1.453-.393 2.159-.645 3.634 5.112 7.24 10.41 9.082 16.248 2.06 6.527 1.396 12.987-1.776 17.28-3.696 5.001-11.487 6.684-17.05 3.932-.541-3.215-1.275-6.368-1.997-9.468-.08-.345-.223-.655-.39-.946.267-.212.537-.418.79-.649 5.884-5.348 7.177-14.812 2.947-21.544-1.029-1.637-3.192-2.13-4.826-1.101-1.637 1.028-2.13 3.189-1.102 4.826 2.4 3.818 1.608 9.607-1.728 12.64-3.394 3.085-9.116 3.319-12.748.521-1.532-1.18-3.729-.894-4.909.638-1.179 1.531-.893 3.729.638 4.908 2.953 2.274 6.619 3.396 10.286 3.396 1.467 0 2.932-.189 4.353-.547 1.322 5.678 2.641 11.531 2.522 17.245-.13 6.19-2.053 11.505-5.414 14.964-4.118 4.238-11.036 6.223-18.513 5.311-6.005-.733-11.927-3.116-17.365-5.571 2.789-6.868 3.595-14.353 4.309-21.02.039-.362.004-.713-.063-1.052.544-.37 1.075-.763 1.581-1.193 6.577-5.589 8.679-15.38 5.314-23.224 2.473-1.94 4.386-4.583 5.378-7.607 1.662-5.058.638-10.793-2.674-14.964-1.202-1.515-3.404-1.767-4.917-.565-1.515 1.202-1.768 3.403-.565 4.917 1.837 2.314 2.428 5.622 1.506 8.428s-3.359 5.119-6.21 5.893c-2.849.774-6.122.011-8.338-1.944-1.449-1.279-3.66-1.142-4.94.307-1.279 1.449-1.142 3.661.308 4.94 2.941 2.597 6.795 3.999 10.674 3.999 1.158 0 2.318-.133 3.457-.388 2.011 5.014.611 11.358-3.527 14.874-4.593 3.903-12.085 3.928-16.706.057-1.479-1.242-3.688-1.047-4.931.434-1.241 1.481-1.047 3.689.435 4.931 3.599 3.017 8.205 4.524 12.811 4.524 1.395 0 2.786-.156 4.154-.432-.692 6.175-1.608 12.414-4.165 17.899-.02.043-.043.086-.063.129-.374.318-.69.712-.91 1.185-.153.331-.233.674-.278 1.018-2.623 4.346-6.948 8.591-12.51 9.406-5.209.765-10.689-1.59-14.882-3.728-7.75-3.951-14.866-8.948-21.199-14.878 1.44-.995 2.796-2.154 4.007-3.5 3.229-3.594 5.538-8.38 6.68-13.844 2.096-.806 4.058-2.069 5.683-3.757 3.022-3.139 4.85-7.53 5.145-12.363.237-3.848-.483-8.022-2.14-12.407-.684-1.808-2.7-2.72-4.512-2.037-1.808.683-2.72 2.703-2.037 4.511 1.305 3.453 1.878 6.65 1.702 9.504-.195 3.176-1.332 5.995-3.202 7.937-1.893 1.967-4.635 2.958-7.002 2.52-2.28-.421-4.26-2.368-4.506-4.432-.229-1.918-1.97-3.293-3.891-3.06-1.92.229-3.29 1.971-3.06 3.891.609 5.098 4.893 9.507 10.185 10.485.068.013.137.017.205.028-.977 3.297-2.491 6.156-4.459 8.346-2.629 2.925-6.107 4.695-9.544 4.857-4.341.204-8.883-2.491-10.783-6.407-.844-1.738-2.935-2.466-4.677-1.621-1.739.844-2.466 2.937-1.622 4.677 3.003 6.188 9.755 10.362 16.623 10.362.262 0 .525-.006.787-.019 1.205-.057 2.406-.251 3.591-.545 7.313 7.249 15.661 13.306 24.844 17.988 4.373 2.229 9.967 4.641 15.973 4.641 1.024 0 2.06-.07 3.103-.223.164-.024.325-.062.488-.09.097.66.381 1.3.859 1.831 2.375 2.64 2.222 6.034 1.919 7.822-.724 4.271-3.542 8.324-7.18 10.323-5.98 3.287-14.237 3.374-24.543.261-26.292-7.942-48.176-27.87-58.54-53.306-.729-1.79-2.774-2.649-4.561-1.92-1.79.729-2.65 2.772-1.921 4.562 11.153 27.373 34.704 48.818 62.999 57.366 5.663 1.71 10.869 2.565 15.594 2.565 5.434 0 10.23-1.131 14.343-3.392 5.523-3.036 9.627-8.894 10.71-15.289.086-.505.151-1.007.196-1.504 10.066 7.012 21.886 11.33 34.209 12.38 9.176.782 16.89-.578 22.941-4.043 7.983-4.572 12.7-13.073 11.736-21.155-.285-2.393-1.148-4.724-2.472-6.805l38.456 1.214c4.567.143 9.746.308 14.657-1.579 5.013-1.926 10.096-6.731 10.153-13.125.036-4.003-1.901-9.878-11.34-15.136-3.95-2.201-8.088-4.028-12.353-5.466l32.121-4.229c4.49-.592 9.58-1.262 14.078-3.907 4.604-2.708 8.787-8.252 7.753-14.534-1.006-6.115-6.252-10.559-15.592-13.209-11.616-3.296-23.745-5.051-35.881-5.231l51.056-20.239c3.279-1.3 6.994-2.776 9.984-5.612.61.022 1.234-.102 1.808-.417 15.907-8.746 37.27-9.64 51.957-9.581 2.269.012 4.634.1 6.407 1.006 1.82.931 3.12 2.927 3.235 4.968.382 6.78-11.344 11.115-18.351 13.705-1.093.404-2.103.777-2.989 1.127-9.775 3.847-18.474 6.549-26.365 8.179zm-103.067 51.081c.068.006.12-.001.179-.001 11.388 0 22.664 2.929 32.615 8.472 2.908 1.62 7.782 4.938 7.746 8.958-.027 3.087-2.955 5.613-5.663 6.654-3.593 1.379-7.829 1.246-11.926 1.117l-48.143-1.52c-.803-.24-1.613-.401-2.426-.497 2.02-3.981 3.153-8.706 3.26-13.839.017-.784.006-1.564-.02-2.34 1.68.427 3.408.648 5.139.648 6.408 0 12.825-2.865 16.726-8.144.086-.116.161-.239.245-.357.612.525 1.402.849 2.268.849zm-75.913 30.107c6.009 2.729 12.647 5.442 19.781 6.313 1.465.179 2.916.267 4.347.267 7.276 0 13.966-2.279 18.711-6.408.313.103.64.176.983.187l5.602.177c.705.282 1.296.623 1.727.909 2.488 1.649 4.234 4.356 4.557 7.064.626 5.247-2.772 11.108-8.264 14.252-4.792 2.745-11.139 3.8-18.869 3.143-14.005-1.193-27.802-7.398-38.036-17.049 3.637-1.983 6.888-5.018 9.461-8.855z"/><path d="m221.828 432.661c-9.324.433-18.604 5.826-25.46 14.796-1.258 1.647-2.402 3.35-3.456 5.095-.081-3.262-.353-6.511-.816-9.716-1.178-8.146-4.989-13.335-10.457-14.237-4.776-.786-9.684 2.029-13.458 7.725-4.139 6.249-6.617 13.522-7.304 20.96-3.739-4.943-8.199-9.347-13.171-12.946-5.713-4.133-10.764-5.615-15.437-4.532-5.878 1.363-10.42 7.134-10.799 13.721-.222 3.844.854 7.828 3.074 11.55-3.738-1.28-7.563-2.358-11.504-3.098-11.962-2.246-23.309-.739-31.949 4.247-.914.528-1.542 1.44-1.707 2.483s.149 2.104.855 2.889c11.762 13.066 29.47 20.66 47.063 20.66 3.249 0 6.495-.259 9.698-.79 1.906-.316 3.196-2.119 2.88-4.025-.315-1.907-2.114-3.194-4.026-2.88-16.681 2.768-34.652-2.785-47.069-14.262 6.557-2.504 14.535-3.026 22.962-1.443 9.616 1.807 18.862 5.959 27.804 9.975 1.653.744 3.599.1 4.486-1.481s.419-3.578-1.077-4.6c-3.681-2.518-7.486-5.121-10.313-8.385-1.678-1.936-4.452-5.867-4.189-10.438.198-3.441 2.566-6.65 5.391-7.305 2.587-.601 5.776.506 9.754 3.383 8.334 6.032 15.045 14.609 18.895 24.15.696 1.725 2.621 2.603 4.383 2 1.76-.604 2.739-2.48 2.229-4.27-3.031-10.633-1.196-22.483 4.907-31.699.806-1.216 3.659-5.15 6.484-4.684 2.615.431 4.125 4.586 4.667 8.331 1.401 9.691.887 19.834-1.486 29.333-.449 1.798.581 3.635 2.35 4.189 1.767.551 3.661-.367 4.319-2.101 3.1-8.188 6.307-16.654 11.579-23.552 4.518-5.91 10.191-9.913 16.026-11.414-1.965 13.067-6.962 25.569-14.581 36.4-1.112 1.581-.732 3.764.849 4.876 1.579 1.111 3.764.732 4.876-.849 9.181-13.05 14.843-28.344 16.375-44.227.098-1.01-.248-2.013-.948-2.749-.701-.732-1.687-1.131-2.699-1.08z"/><path d="m326.882 437.849c4.154-8.658 2.261-13.6-.079-16.228-4.744-5.33-12.684-3.447-18.537.092-19.772 11.959-33.575 32.749-36.923 55.612-.28 1.913 1.043 3.69 2.956 3.97 1.92.281 3.689-1.044 3.97-2.956 3.049-20.818 15.617-39.747 33.62-50.637 3.43-2.075 7.926-3.407 9.685-1.429 1.789 2.01.071 6.359-1.112 8.772-2.681 5.467-5.793 10.677-9.312 15.598-4.35 4.303-8.312 8.986-11.806 13.985-1.041 1.489-.77 3.527.625 4.692 1.395 1.164 3.448 1.068 4.727-.221 4.302-4.335 8.242-8.977 11.797-13.896 9.437-9.226 20.788-16.546 33.088-21.208 3.1-1.175 8.193-2.641 11.854-1.372-9.999 12.641-22.725 23.196-37 30.66-1.703.891-2.369 2.988-1.492 4.699.877 1.71 2.971 2.395 4.686 1.53 16.54-8.316 36.641-18.425 57.062-18.537-5.706 4.477-12.01 8.184-18.694 10.996-3.003.872-5.954 1.922-8.835 3.152-1.705.728-2.547 2.659-1.92 4.403s2.512 2.694 4.283 2.173c2.991-.882 5.932-1.925 8.81-3.12 15.607-4.442 32.679-3.596 47.749 2.453-8.499 7.311-19.713 11.677-30.883 11.871-1.933.034-3.473 1.627-3.438 3.56.032 1.912 1.593 3.439 3.498 3.439h.062c14.918-.258 29.315-6.66 39.499-17.565.758-.811 1.086-1.933.884-3.025-.201-1.091-.909-2.022-1.906-2.509-11.748-5.732-24.873-8.393-37.92-7.975 3.511-2.511 6.839-5.279 9.945-8.282.963-.932 1.31-2.333.893-3.606-.418-1.274-1.526-2.197-2.854-2.378-13.18-1.791-26.115.67-38.252 4.835 4.987-4.777 9.573-9.971 13.671-15.511 1.006-1.359.896-3.242-.26-4.475-4.578-4.886-12.363-5.583-21.921-1.961-7.088 2.686-13.881 6.194-20.22 10.399z"/></g></g></svg>