<svg id="Flat" height="512" viewBox="0 0 512 512" width="512" xmlns="http://www.w3.org/2000/svg"><path d="m477.31 246.768-165.31-142.768h-96l-192 160v208h176v-160l40-64 187.946 75.178a16 16 0 0 0 19.254-5.978l32.964-49.446a16 16 0 0 0 -2.854-20.986z" fill="#d49073"/><path d="m389.75 171.15-75.97 106.36-73.78-29.51-5.64 9.02-18.36-153.02h96z" fill="#596063"/><path d="m248 40h-16l32 64h48a64 64 0 0 0 -64-64z" fill="#b37a60"/><path d="m200 40h-16l32 64h48a64 64 0 0 0 -64-64z" fill="#d49073"/><circle cx="288" cy="176" fill="#d49073" r="32"/><circle cx="288" cy="176" fill="#464c4f" r="8"/><circle cx="448" cy="264" fill="#464c4f" r="8"/><path d="m160 104-136 112v48l192-160z" fill="#b37a60"/><path d="m376 304v32a64 64 0 0 1 -64 64h-288v-32h288a32 32 0 0 0 32-32v-32z" fill="#51585c"/><path d="m344 304 32 16 80-120-24-24z" fill="#596063"/></svg>