<?xml version="1.0"?>
<svg xmlns="http://www.w3.org/2000/svg" xmlns:xlink="http://www.w3.org/1999/xlink" xmlns:svgjs="http://svgjs.com/svgjs" version="1.1" width="512" height="512" x="0" y="0" viewBox="0 0 472.022 472.022" style="enable-background:new 0 0 512 512" xml:space="preserve" class=""><g>
<g xmlns="http://www.w3.org/2000/svg">
	<path style="" d="M44.011,48.005h48v16h-48V48.005z" fill="#f10606" data-original="#a2dae7"/>
	<path style="" d="M49.035,15.432l5.942-14.856l39.999,15.999l-5.942,14.856L49.035,15.432z" fill="#f10606" data-original="#a2dae7"/>
	<path style="" d="M49.035,96.573L89.04,80.588l5.937,14.858l-40.005,15.985L49.035,96.573z" fill="#f10606" data-original="#a2dae7"/>
	<path style="" d="M380.011,48.005h48v16h-48V48.005z" fill="#f10606" data-original="#a2dae7"/>
	<path style="" d="M377.039,16.569l40.005-15.985l5.937,14.858l-40.005,15.985L377.039,16.569z" fill="#f10606" data-original="#a2dae7"/>
	<path style="" d="M377.006,95.465l5.942-14.856l39.999,15.999l-5.942,14.856L377.006,95.465z" fill="#f10606" data-original="#a2dae7"/>
</g>
<path xmlns="http://www.w3.org/2000/svg" style="" d="M284.011,159.349v-39.344h-96v39.344c-84.295,26.51-131.14,116.335-104.63,200.63  s116.335,131.14,200.63,104.63c84.295-26.51,131.14-116.335,104.63-200.63C372.956,214.102,333.889,175.035,284.011,159.349z   M236.011,432.005c-66.274,0-120-53.726-120-120s53.726-120,120-120s120,53.726,120,120S302.285,432.005,236.011,432.005z" fill="#fdcd74" data-original="#fdcd74" class=""/>
<path xmlns="http://www.w3.org/2000/svg" style="" d="M148.011,56.005l32-48h112l32,48l-88,112L148.011,56.005z" fill="#f10606" data-original="#a2dae7"/>
<path xmlns="http://www.w3.org/2000/svg" style="" d="M292.011,8.005h-48l32,48l-64,81.456l24,30.544l88-112L292.011,8.005z" fill="#f10606" data-original="#8dd3e7" class=""/>
<g xmlns="http://www.w3.org/2000/svg">
	<path style="" d="M324.011,64.005h-176c-4.418,0-8-3.582-8-8s3.582-8,8-8h176c4.418,0,8,3.582,8,8   S328.429,64.005,324.011,64.005z" fill="#f57575" data-original="#7fc0e6" class=""/>
	<path style="" d="M268.011,64.005c-2.674,0-5.172-1.335-6.656-3.56l-25.344-38.04l-25.344,38.04   c-1.557,2.404-4.304,3.764-7.16,3.544c-2.846-0.178-5.381-1.858-6.656-4.408l-24-48c-1.975-3.954-0.37-8.761,3.584-10.736   s8.761-0.37,10.736,3.584l0,0l17.832,35.672l24.352-36.536c2.75-3.676,7.959-4.427,11.635-1.677   c0.636,0.476,1.201,1.041,1.677,1.677l24.352,36.536l17.792-35.672c1.975-3.954,6.782-5.559,10.736-3.584   c3.954,1.975,5.559,6.782,3.584,10.736l0,0l-24,48c-1.276,2.553-3.815,4.233-6.664,4.408   C268.339,64.005,268.179,64.005,268.011,64.005z" fill="#f57575" data-original="#7fc0e6" class=""/>
	<path style="" d="M236.011,165.805c-3.573,0.002-6.714-2.365-7.696-5.8l-32-101.8   c-1.215-4.25,1.246-8.681,5.496-9.896c4.25-1.215,8.681,1.246,9.896,5.496l24.304,85.08l24.304-85.08   c1.215-4.25,5.646-6.711,9.896-5.496c4.25,1.215,6.711,5.646,5.496,9.896l0,0l-32,101.8   C242.725,163.44,239.584,165.807,236.011,165.805z" fill="#f57575" data-original="#7fc0e6" class=""/>
</g>
<path xmlns="http://www.w3.org/2000/svg" style="" d="M352.699,202.725c-5.031,14.19-10.938,28.054-17.688,41.512  c37.461,54.623,23.549,129.272-31.074,166.733c-46.904,32.167-109.952,26.966-150.95-12.453  c-14.302,4.559-28.871,8.236-43.624,11.008c53.797,70.008,154.161,83.149,224.168,29.352s83.149-154.161,29.352-224.168  C359.688,210.55,356.289,206.55,352.699,202.725L352.699,202.725z" fill="#fdc05e" data-original="#fdc05e"/>
<g xmlns="http://www.w3.org/2000/svg">
</g>
<g xmlns="http://www.w3.org/2000/svg">
</g>
<g xmlns="http://www.w3.org/2000/svg">
</g>
<g xmlns="http://www.w3.org/2000/svg">
</g>
<g xmlns="http://www.w3.org/2000/svg">
</g>
<g xmlns="http://www.w3.org/2000/svg">
</g>
<g xmlns="http://www.w3.org/2000/svg">
</g>
<g xmlns="http://www.w3.org/2000/svg">
</g>
<g xmlns="http://www.w3.org/2000/svg">
</g>
<g xmlns="http://www.w3.org/2000/svg">
</g>
<g xmlns="http://www.w3.org/2000/svg">
</g>
<g xmlns="http://www.w3.org/2000/svg">
</g>
<g xmlns="http://www.w3.org/2000/svg">
</g>
<g xmlns="http://www.w3.org/2000/svg">
</g>
<g xmlns="http://www.w3.org/2000/svg">
</g>
</g></svg>
