<svg height="480pt" viewBox="0 -64 480.03232 480" width="480pt" xmlns="http://www.w3.org/2000/svg"><path d="m368.03125 185.953125v94.078125c0 31.921875-55.039062 56-128 56-72.957031 0-128-24.078125-128-56v-94.078125c.023438-2.785156 1.480469-5.359375 3.859375-6.808594 2.378906-1.453125 5.335937-1.570312 7.820313-.3125l116.320312 60.160157 116.320312-60.160157c2.484376-1.257812 5.445313-1.140625 7.820313.3125 2.378906 1.449219 3.839844 4.023438 3.859375 6.808594zm0 0" fill="#333"/><path d="m480.03125 128.03125c-.007812 2.992188-1.671875 5.734375-4.320312 7.121094l-232 120c-2.3125 1.171875-5.046876 1.171875-7.359376 0l-232-120c-2.671874-1.367188-4.351562-4.117188-4.351562-7.121094 0-3 1.679688-5.75 4.351562-7.117188l232-120c2.308594-1.195312 5.054688-1.195312 7.359376 0l232 120c2.648437 1.386719 4.3125 4.128907 4.320312 7.117188zm0 0"/><path d="m424.03125 224.03125c-4.417969 0-8-3.582031-8-8v-56.972656l-177.03125-23.089844c-4.382812-.570312-7.472656-4.585938-6.902344-8.96875.570313-4.382812 4.582032-7.472656 8.964844-6.902344l184 24c3.988281.519532 6.972656 3.914063 6.96875 7.933594v64c0 4.417969-3.582031 8-8 8zm0 0" fill="#f7931e"/><path d="m448.03125 232.03125v112c0 4.417969-3.582031 8-8 8h-32c-4.417969 0-8-3.582031-8-8v-112c0-13.253906 10.746094-24 24-24 13.257812 0 24 10.746094 24 24zm0 0" fill="#e57a10"/></svg>